<svg width="285" height="251" viewBox="0 0 285 251" fill="none" xmlns="http://www.w3.org/2000/svg">
<g clip-path="url(#clip0_15030_34781)">
<path d="M20.6912 74.1792C20.6912 33.3244 52.8648 0.205078 92.5531 0.205078H116.334L0 125.501L12.1365 105.239C17.7294 95.9021 20.6912 85.1485 20.6912 74.1792Z" fill="#FAFAFA"/>
<path d="M108.942 53.2971C161.441 18.5024 222.561 0 285 0V90.7525L0 125.5L108.942 53.2971Z" fill="#FAFAFA"/>
<path d="M20.4757 176.836C20.4757 165.984 17.585 155.342 12.1182 146.065L0 125.5L116.118 251H92.5224C52.7321 251 20.4757 217.796 20.4757 176.836Z" fill="#FAFAFA"/>
<path d="M0 125.5L285 160.248V251C222.561 251 161.441 232.498 108.942 197.703L0 125.5Z" fill="#FAFAFA"/>
</g>
<defs>
<clipPath id="clip0_15030_34781">
<rect width="285" height="251" fill="white"/>
</clipPath>
</defs>
</svg>
