<svg width="211" height="205" viewBox="0 0 211 205" fill="none" xmlns="http://www.w3.org/2000/svg">
<g opacity="0.5">
<g clip-path="url(#clip0_13051_27465)">
<path d="M33.1446 177.188C30.5598 177.188 28.3912 176.309 26.6387 174.55C24.8862 172.792 24.0071 170.629 24.0012 168.062V36.8552C24.0012 34.2764 24.8804 32.1107 26.6387 30.3582C28.3912 28.5999 30.5598 27.7207 33.1446 27.7207H94.0005C96.5794 27.7207 98.748 28.5999 100.506 30.3582C102.259 32.1107 103.135 34.2793 103.135 36.864V62.8874H177.864C180.443 62.8874 182.612 63.7665 184.37 65.5249C186.117 67.2773 186.99 69.4459 186.99 72.0307V168.062C186.99 170.641 186.114 172.807 184.361 174.559C182.609 176.312 180.44 177.188 177.855 177.188H33.1446ZM32.7929 168.396H94.3345V142.021H32.7929V168.396ZM32.7929 133.229H94.3345V106.854H32.7929V133.229ZM32.7929 98.0628H94.3345V71.6878H32.7929V98.0628ZM32.7929 62.8962H94.3345V36.5212H32.7929V62.8962ZM103.126 168.396H178.207V71.6878H103.126V168.396ZM128.499 106.854C127.251 106.854 126.204 106.432 125.36 105.588C124.522 104.744 124.103 103.698 124.103 102.45C124.103 101.201 124.522 100.158 125.36 99.32C126.198 98.4819 127.245 98.0628 128.499 98.0628H149.458C150.707 98.0628 151.75 98.4848 152.588 99.3288C153.426 100.173 153.848 101.219 153.854 102.467C153.86 103.716 153.438 104.759 152.588 105.597C151.738 106.435 150.695 106.854 149.458 106.854H128.499ZM128.499 142.021C127.251 142.021 126.204 141.599 125.36 140.755C124.522 139.911 124.103 138.865 124.103 137.617C124.103 136.368 124.522 135.325 125.36 134.487C126.198 133.649 127.245 133.229 128.499 133.229H149.458C150.707 133.229 151.75 133.651 152.588 134.495C153.426 135.339 153.848 136.386 153.854 137.634C153.86 138.883 153.438 139.926 152.588 140.764C151.738 141.602 150.695 142.021 149.458 142.021H128.499Z" fill="#E7EAEB"/>
</g>
</g>
<defs>
<clipPath id="clip0_13051_27465">
<rect width="211" height="211" fill="white"/>
</clipPath>
</defs>
</svg>
