<svg width="211" height="205" viewBox="0 0 211 205" fill="none" xmlns="http://www.w3.org/2000/svg">
<g opacity="0.5">
<g clip-path="url(#clip0_13051_27948)">
<path d="M35.1666 180.23C33.9123 180.23 32.8661 179.808 32.028 178.964C31.1898 178.12 30.7708 177.076 30.7708 175.834V168.906C30.7708 167.658 31.1928 166.611 32.0368 165.767C32.8808 164.923 33.927 164.504 35.1754 164.51C36.4238 164.516 37.4671 164.935 38.3052 165.767C39.1433 166.6 39.5624 167.646 39.5624 168.906V175.834C39.5624 177.082 39.1404 178.125 38.2964 178.964C37.4524 179.802 36.415 180.224 35.1666 180.23ZM70.3245 180.23C69.0819 180.23 68.0386 179.808 67.1946 178.964C66.3506 178.12 65.9316 177.076 65.9374 175.834V129.343C65.9374 128.095 66.3594 127.049 67.2034 126.205C68.0474 125.361 69.0936 124.942 70.342 124.948C71.5905 124.953 72.6337 125.373 73.4719 126.205C74.31 127.037 74.7291 128.083 74.7291 129.343V175.834C74.7291 177.082 74.3071 178.125 73.4631 178.964C72.6191 179.802 71.5729 180.224 70.3245 180.23ZM105.491 180.23C104.243 180.23 103.199 179.808 102.361 178.964C101.523 178.12 101.104 177.076 101.104 175.834V146.927C101.104 145.678 101.526 144.632 102.37 143.788C103.214 142.944 104.26 142.525 105.509 142.531C106.757 142.537 107.8 142.956 108.639 143.788C109.477 144.62 109.896 145.667 109.896 146.927V175.834C109.896 177.082 109.474 178.125 108.63 178.964C107.786 179.802 106.74 180.224 105.491 180.23ZM140.658 180.23C139.415 180.23 138.372 179.808 137.528 178.964C136.684 178.12 136.265 177.076 136.271 175.834V133.739C136.271 132.491 136.693 131.445 137.537 130.601C138.381 129.757 139.427 129.338 140.675 129.343C141.924 129.349 142.967 129.768 143.805 130.601C144.643 131.433 145.062 132.479 145.062 133.739V175.834C145.062 177.082 144.64 178.125 143.796 178.964C142.952 179.802 141.906 180.224 140.658 180.23ZM175.824 180.23C174.582 180.23 173.539 179.808 172.695 178.964C171.851 178.12 171.432 177.076 171.437 175.834V98.5726C171.437 97.3242 171.859 96.278 172.703 95.434C173.547 94.59 174.594 94.1709 175.842 94.1768C177.09 94.1826 178.134 94.6017 178.972 95.434C179.81 96.2663 180.229 97.3125 180.229 98.5726V175.834C180.229 177.082 179.807 178.125 178.963 178.964C178.119 179.802 177.073 180.224 175.824 180.23ZM123.083 100.551C121.301 100.551 119.549 100.199 117.826 99.4957C116.097 98.7924 114.52 97.796 113.096 96.5066L91.8025 75.2219C90.7885 74.208 89.4932 73.701 87.9166 73.701C86.3399 73.701 85.0446 74.208 84.0307 75.2219L38.2788 120.974C37.4231 121.83 36.3769 122.278 35.1402 122.319C33.9094 122.354 32.8661 121.885 32.0104 120.912C31.184 120.062 30.7883 119.04 30.8235 117.844C30.8587 116.648 31.2689 115.658 32.0543 114.872L77.9293 68.9974C79.3535 67.5908 80.9301 66.5651 82.6592 65.9204C84.3823 65.2756 86.1348 64.9533 87.9166 64.9533C89.6984 64.9533 91.4831 65.2756 93.2707 65.9204C95.0583 66.5651 96.6027 67.5908 97.9039 68.9974L119.197 90.2821C120.211 91.296 121.507 91.803 123.083 91.803C124.66 91.803 125.955 91.296 126.969 90.2821L172.721 44.539C173.577 43.6775 174.623 43.2291 175.86 43.1939C177.09 43.1529 178.137 43.6159 178.998 44.583C179.819 45.4387 180.211 46.4644 180.176 47.6601C180.141 48.8557 179.731 49.8492 178.945 50.6405L133.079 96.5066C131.766 97.796 130.219 98.7924 128.437 99.4957C126.656 100.199 124.871 100.551 123.083 100.551Z" fill="#E7EAEB"/>
</g>
</g>
<defs>
<clipPath id="clip0_13051_27948">
<rect width="211" height="211" fill="white"/>
</clipPath>
</defs>
</svg>
