<svg width="211" height="205" viewBox="0 0 211 205" fill="none" xmlns="http://www.w3.org/2000/svg">
<g opacity="0.5">
<path d="M75.8714 175.833C64.5712 175.833 54.9619 171.874 47.0436 163.955C39.1252 156.037 35.166 146.407 35.166 135.066C35.166 130.33 35.9778 125.717 37.6013 121.228C39.2248 116.738 41.5693 112.65 44.6346 108.963L75.511 71.8888L62.4202 45.3819C61.1835 43.014 61.2362 40.7194 62.5784 38.4981C63.9265 36.2767 65.9486 35.166 68.6447 35.166H142.354C145.05 35.166 147.072 36.2767 148.42 38.4981C149.768 40.7194 149.821 43.014 148.579 45.3819L135.488 71.8888L166.364 108.963C169.429 112.65 171.774 116.738 173.397 121.228C175.021 125.711 175.833 130.324 175.833 135.066C175.833 146.407 171.876 156.037 163.964 163.955C156.051 171.874 146.439 175.833 135.127 175.833H75.8714ZM105.473 136.094C101.558 136.094 98.2169 134.702 95.4505 131.918C92.684 129.134 91.3008 125.785 91.3008 121.869C91.3008 117.954 92.6928 114.613 95.4768 111.847C98.2609 109.08 101.613 107.697 105.535 107.697C109.456 107.697 112.796 109.092 115.557 111.882C118.318 114.672 119.701 118.022 119.707 121.931C119.713 125.84 118.318 129.181 115.522 131.953C112.726 134.726 109.376 136.109 105.473 136.103M83.6081 68.1348H127.566L139.567 43.9577H71.4316L83.6081 68.1348ZM75.8714 167.041H135.127C144.042 167.041 151.591 163.923 157.775 157.687C163.952 151.439 167.041 143.904 167.041 135.083C167.041 131.367 166.417 127.748 165.168 124.226C163.92 120.703 162.088 117.509 159.674 114.643L128.199 76.9264H83.0103L51.5009 114.599C49.0744 117.459 47.2106 120.668 45.9094 124.226C44.6083 127.777 43.9577 131.408 43.9577 135.118C43.9577 143.922 47.0787 151.445 53.3208 157.687C59.557 163.923 67.0739 167.041 75.8714 167.041Z" fill="#E7EAEB"/>
</g>
</svg>
