<svg width="176" height="44" viewBox="0 0 176 44" fill="none" xmlns="http://www.w3.org/2000/svg">
<g clip-path="url(#clip0_13043_22606)">
<path d="M175.786 28.3348H161.354V25.9102H175.786V28.3348Z" fill="#F9F9F9"/>
<path d="M175.785 13.8418V16.2447H174.5C175.496 17.1037 176 18.2454 176 19.6806C176 20.7353 175.711 21.6269 175.143 22.3554C174.564 23.0838 173.771 23.4535 172.742 23.4535C171.617 23.4535 170.771 23.0621 170.193 22.2684C169.614 21.4746 169.325 20.4417 169.325 19.1587C169.325 18.1258 169.474 17.1472 169.764 16.2339H169.571C168.842 16.2339 168.296 16.4622 167.91 16.908C167.524 17.3538 167.332 18.0062 167.332 18.8434C167.332 19.8111 167.546 20.8114 167.985 21.8769L166.067 22.5402C165.489 21.2246 165.199 19.8872 165.199 18.5063C165.199 16.9732 165.585 15.8098 166.346 15.027C167.107 14.2441 168.199 13.8527 169.603 13.8527H175.796L175.785 13.8418ZM172.014 16.1904H171.425C171.146 16.908 171.007 17.7235 171.007 18.615C171.007 19.3762 171.157 19.9742 171.446 20.3982C171.735 20.8223 172.143 21.0397 172.667 21.0397C173.139 21.0397 173.514 20.844 173.793 20.4526C174.071 20.0611 174.21 19.5719 174.21 18.9847C174.21 18.1692 174.007 17.4951 173.6 16.9732C173.192 16.4404 172.667 16.1795 172.014 16.1795V16.1904Z" fill="#F9F9F9"/>
<path d="M176 4.93633C176 6.39333 175.389 7.58935 174.157 8.52443H175.775V10.9491H161.342V8.52443H167.074C165.767 7.58935 165.114 6.39333 165.114 4.93633C165.114 3.59897 165.606 2.44643 166.592 1.46786C167.578 0.489285 168.906 0 170.578 0C172.249 0 173.546 0.489285 174.521 1.46786C175.507 2.44643 176 3.59897 176 4.93633ZM173.921 5.50173C173.921 4.64278 173.61 3.92516 172.989 3.34889C172.367 2.76175 171.553 2.47904 170.535 2.47904C169.517 2.47904 168.746 2.77262 168.124 3.35976C167.503 3.9469 167.192 4.66452 167.192 5.50173C167.192 6.33895 167.514 7.06746 168.146 7.67634C168.778 8.28522 169.592 8.58968 170.578 8.58968C171.564 8.58968 172.357 8.28522 172.978 7.67634C173.6 7.06746 173.921 6.33895 173.921 5.50173Z" fill="#F9F9F9"/>
<path d="M0 42.4804V35.7825H1.15719V36.6416C1.60721 35.9999 2.17509 35.6738 2.87155 35.6738C3.51444 35.6738 4.06088 35.913 4.53233 36.4024C5.00378 36.8807 5.22878 37.5441 5.22878 38.3594C5.22878 39.1749 4.99307 39.8166 4.53233 40.3057C4.07159 40.784 3.51444 41.0343 2.87155 41.0343C2.17509 41.0343 1.60721 40.7297 1.15719 40.1318V42.4912H0V42.4804ZM2.60368 40.0122C3.01082 40.0122 3.35372 39.86 3.63228 39.5554C3.91087 39.251 4.05017 38.8488 4.05017 38.3485C4.05017 37.8485 3.91087 37.468 3.63228 37.1634C3.35372 36.859 3.01082 36.7068 2.60368 36.7068C2.19652 36.7068 1.85365 36.859 1.56435 37.1742C1.27505 37.4897 1.12505 37.8811 1.12505 38.3703C1.12505 38.8597 1.27505 39.2402 1.56435 39.5554C1.85365 39.86 2.20723 40.0231 2.60368 40.0231V40.0122Z" fill="#F9F9F9"/>
<path d="M11.6367 40.9142H10.4902V40.2835C10.083 40.7729 9.53659 41.0229 8.85085 41.0229C8.34726 41.0229 7.91867 40.8816 7.5758 40.599C7.23293 40.3161 7.05078 39.9247 7.05078 39.4138C7.05078 38.8592 7.24364 38.4461 7.61865 38.1635C7.99368 37.8806 8.48656 37.7392 9.10799 37.7392C9.60087 37.7392 10.0723 37.8153 10.5116 37.9567V37.8588C10.5116 37.5001 10.4045 37.2283 10.1902 37.0435C9.9759 36.8585 9.66517 36.7606 9.26871 36.7606C8.808 36.7606 8.32584 36.8693 7.82225 37.087L7.51152 36.141C8.13295 35.8584 8.77584 35.7168 9.44015 35.7168C10.1795 35.7168 10.7259 35.9019 11.1009 36.2823C11.476 36.6628 11.6581 37.1957 11.6581 37.8914V40.936L11.6367 40.9142ZM10.5116 39.0548V38.7613C10.1688 38.62 9.78304 38.5548 9.35444 38.5548C8.99015 38.5548 8.70085 38.6309 8.49727 38.7722C8.29367 38.9135 8.18654 39.1201 8.18654 39.3703C8.18654 39.5986 8.28296 39.7834 8.46511 39.9247C8.64728 40.0661 8.88299 40.1313 9.16158 40.1313C9.5473 40.1313 9.86875 40.0335 10.1259 39.8269C10.383 39.6312 10.5009 39.3703 10.5009 39.044L10.5116 39.0548Z" fill="#F9F9F9"/>
<path d="M15.6974 41.0343C14.8296 41.0343 14.0902 40.7732 13.4795 40.2514L14.026 39.4684C14.4974 39.8818 15.0331 40.0775 15.6225 40.0775C15.8903 40.0775 16.1153 40.0122 16.2975 39.8818C16.4796 39.7513 16.576 39.5771 16.576 39.3706C16.576 39.1749 16.4903 39.0227 16.3082 38.9032C16.126 38.7836 15.8796 38.7292 15.5474 38.7292H14.926V37.8811H15.5474C15.8153 37.8811 16.0296 37.8159 16.1903 37.6963C16.351 37.5767 16.4368 37.4136 16.4368 37.2177C16.4368 37.0438 16.3618 36.9025 16.201 36.7938C16.0403 36.6851 15.8475 36.6307 15.601 36.6307C15.0331 36.6307 14.5617 36.8046 14.1653 37.1525L13.6509 36.4133C14.2081 35.9239 14.8938 35.6738 15.7082 35.6738C16.2653 35.6738 16.7153 35.8043 17.0689 36.0652C17.4225 36.3263 17.594 36.6524 17.594 37.0547C17.594 37.5984 17.3261 37.9898 16.8011 38.2181C17.4118 38.4355 17.7225 38.8488 17.7225 39.4684C17.7225 39.9144 17.5297 40.284 17.1547 40.5884C16.7796 40.893 16.2868 41.0452 15.6867 41.0452L15.6974 41.0343Z" fill="#F9F9F9"/>
<path d="M19.8975 42.4804V35.7825H21.0546V36.6416C21.5047 35.9999 22.0725 35.6738 22.769 35.6738C23.4119 35.6738 23.9583 35.913 24.4298 36.4024C24.9012 36.8807 25.1262 37.5441 25.1262 38.3594C25.1262 39.1749 24.8905 39.8166 24.4298 40.3057C23.9691 40.784 23.4119 41.0343 22.769 41.0343C22.0725 41.0343 21.5047 40.7297 21.0546 40.1318V42.4912H19.8975V42.4804ZM22.5011 40.0122C22.9083 40.0122 23.2512 39.86 23.5297 39.5554C23.8083 39.251 23.9476 38.8488 23.9476 38.3485C23.9476 37.8485 23.8083 37.468 23.5297 37.1634C23.2512 36.859 22.9083 36.7068 22.5011 36.7068C22.094 36.7068 21.7511 36.859 21.4618 37.1742C21.1725 37.4897 21.0225 37.8811 21.0225 38.3703C21.0225 38.8597 21.1725 39.2402 21.4618 39.5554C21.7511 39.86 22.1047 40.0231 22.5011 40.0231V40.0122Z" fill="#F9F9F9"/>
<path d="M31.5332 40.9142H30.3867V40.2835C29.9796 40.7729 29.4332 41.0229 28.7473 41.0229C28.2438 41.0229 27.8153 40.8816 27.4725 40.599C27.1294 40.3161 26.9473 39.9247 26.9473 39.4138C26.9473 38.8592 27.1401 38.4461 27.5153 38.1635C27.8903 37.8806 28.3831 37.7392 29.0047 37.7392C29.4975 37.7392 29.9689 37.8153 30.4081 37.9567V37.8588C30.4081 37.5001 30.301 37.2283 30.0867 37.0435C29.8724 36.8585 29.5618 36.7606 29.1654 36.7606C28.7045 36.7606 28.2224 36.8693 27.7189 37.087L27.4082 36.141C28.0295 35.8584 28.6723 35.7168 29.3368 35.7168C30.076 35.7168 30.6226 35.9019 30.9976 36.2823C31.3725 36.6628 31.5546 37.1957 31.5546 37.8914V40.936L31.5332 40.9142ZM30.4081 39.0548V38.7613C30.0653 38.62 29.6796 38.5548 29.2511 38.5548C28.8868 38.5548 28.5973 38.6309 28.3938 38.7722C28.1902 38.9135 28.0831 39.1201 28.0831 39.3703C28.0831 39.5986 28.1795 39.7834 28.3616 39.9247C28.5438 40.0661 28.7795 40.1313 29.0582 40.1313C29.4439 40.1313 29.7653 40.0335 30.0224 39.8269C30.2795 39.6312 30.3974 39.3703 30.3974 39.044L30.4081 39.0548Z" fill="#F9F9F9"/>
<path d="M36.3233 41.0347C35.5091 41.0347 34.8663 40.7735 34.4054 40.2517C33.9447 39.7297 33.7197 38.9905 33.7197 38.0445C33.7197 37.7401 33.7197 37.4681 33.7412 37.2398C33.7519 37.0115 33.784 36.7615 33.8376 36.4897C33.8804 36.2177 33.9554 35.9894 34.0411 35.7829C34.1375 35.5872 34.2554 35.3915 34.3947 35.2067C34.5339 35.0217 34.7268 34.8695 34.952 34.739C35.177 34.6086 35.4448 34.5216 35.7447 34.4564L38.5092 33.8691L38.7021 34.8151L35.9376 35.4242C35.4769 35.522 35.1448 35.6959 34.952 35.9459C34.7482 36.196 34.641 36.5115 34.6089 36.8811C34.7589 36.6202 35.0055 36.3919 35.3377 36.2068C35.6698 36.0112 36.0769 35.9242 36.5592 35.9242C37.2127 35.9242 37.7805 36.1634 38.2628 36.6528C38.7342 37.1311 38.9806 37.7292 38.9806 38.425C38.9806 39.1209 38.7342 39.7623 38.2307 40.2735C37.7269 40.7844 37.1056 41.0455 36.3447 41.0455L36.3233 41.0347ZM36.3447 40.0126C36.7735 40.0126 37.127 39.8604 37.3948 39.5558C37.6626 39.2514 37.8019 38.8818 37.8019 38.4358C37.8019 37.9901 37.6626 37.6205 37.3734 37.3159C37.0841 37.0115 36.7413 36.8593 36.3233 36.8593C35.9054 36.8593 35.5519 37.0115 35.2841 37.3159C35.0163 37.6205 34.877 38.001 34.877 38.4467C34.877 38.8926 35.0163 39.2622 35.2948 39.5666C35.5733 39.8713 35.9269 40.0234 36.334 40.0234L36.3447 40.0126Z" fill="#F9F9F9"/>
<path d="M43.5127 41.0352C42.7411 41.0352 42.1091 40.7743 41.5948 40.2522C41.0804 39.7304 40.8232 39.0997 40.8232 38.3496C40.8232 37.5993 41.0804 36.9688 41.5948 36.4467C42.1091 35.925 42.7518 35.6641 43.5234 35.6641C44.2948 35.6641 44.9271 35.925 45.4413 36.4467C45.9556 36.9688 46.2127 37.5993 46.2127 38.3496C46.2127 39.0997 45.9556 39.7196 45.4413 40.2414C44.9271 40.7634 44.2734 41.0243 43.502 41.0243L43.5127 41.0352ZM43.5342 40.0131C43.9948 40.0131 44.3698 39.85 44.6486 39.5348C44.9271 39.2195 45.0664 38.8279 45.0664 38.3605C45.0664 37.8928 44.9164 37.5123 44.6271 37.1862C44.3376 36.871 43.9627 36.7076 43.5127 36.7076C43.0628 36.7076 42.6876 36.871 42.409 37.1862C42.1305 37.5014 41.9912 37.8928 41.9912 38.3605C41.9912 38.8279 42.1412 39.2086 42.4305 39.5239C42.7197 39.85 43.0949 40.0131 43.5342 40.0131Z" fill="#F9F9F9"/>
<path d="M49.2556 40.9146V36.7827H47.627V35.7715H52.0522V36.7827H50.4236V40.9146H49.2556Z" fill="#F9F9F9"/>
<path d="M53.9268 40.9146V35.7715H55.0733V38.229L57.2805 35.7715H58.6413L56.6805 37.9352L58.8127 40.9146H57.4411L55.9089 38.7943L55.084 39.6751V40.9146H53.9375H53.9268Z" fill="#F9F9F9"/>
<path d="M64.6306 40.9142H63.4843V40.2835C63.0772 40.7729 62.5306 41.0229 61.845 41.0229C61.3412 41.0229 60.9127 40.8816 60.5699 40.599C60.227 40.3161 60.0449 39.9247 60.0449 39.4138C60.0449 38.8592 60.2378 38.4461 60.6127 38.1635C60.9877 37.8806 61.4807 37.7392 62.1021 37.7392C62.5949 37.7392 63.0665 37.8153 63.5057 37.9567V37.8588C63.5057 37.5001 63.3986 37.2283 63.1844 37.0435C62.9698 36.8585 62.6592 36.7606 62.2628 36.7606C61.8021 36.7606 61.3198 36.8693 60.8163 37.087L60.5056 36.141C61.1269 35.8584 61.77 35.7168 62.4342 35.7168C63.1736 35.7168 63.72 35.9019 64.095 36.2823C64.4699 36.6628 64.652 37.1957 64.652 37.8914V40.936L64.6306 40.9142ZM63.5057 39.0548V38.7613C63.1629 38.62 62.777 38.5548 62.3485 38.5548C61.9842 38.5548 61.695 38.6309 61.4914 38.7722C61.2876 38.9135 61.1805 39.1201 61.1805 39.3703C61.1805 39.5986 61.2769 39.7834 61.4593 39.9247C61.6414 40.0661 61.8771 40.1313 62.1556 40.1313C62.5413 40.1313 62.8627 40.0335 63.1201 39.8269C63.3772 39.6312 63.495 39.3703 63.495 39.044L63.5057 39.0548Z" fill="#F9F9F9"/>
<path d="M73.1494 41.0343C72.3995 41.0343 71.7779 40.7732 71.2851 40.2623C70.7923 39.7513 70.5352 39.1206 70.5352 38.3811V38.3594C70.5352 37.6202 70.7816 36.9894 71.2851 36.4676C71.7886 35.9456 72.4102 35.6738 73.1601 35.6738C73.9746 35.6738 74.6495 35.9673 75.1851 36.5655L74.4674 37.3482C74.0603 36.9242 73.6315 36.7068 73.1494 36.7068C72.7316 36.7068 72.3888 36.8699 72.1102 37.1851C71.8314 37.5006 71.6922 37.8919 71.6922 38.3376V38.3594C71.6922 38.8271 71.8314 39.2184 72.1207 39.5337C72.4102 39.8492 72.7637 40.0122 73.2137 40.0122C73.685 40.0122 74.1138 39.7948 74.5316 39.3706L75.228 40.0666C74.9494 40.3818 74.6495 40.621 74.3281 40.784C74.0067 40.9474 73.6101 41.0343 73.1494 41.0343Z" fill="#F9F9F9"/>
<path d="M81.4424 40.9142H80.2958V40.2835C79.8887 40.7729 79.3421 41.0229 78.6565 41.0229C78.153 41.0229 77.7242 40.8816 77.3814 40.599C77.0386 40.3161 76.8564 39.9247 76.8564 39.4138C76.8564 38.8592 77.0493 38.4461 77.4242 38.1635C77.7992 37.8806 78.2922 37.7392 78.9136 37.7392C79.4064 37.7392 79.878 37.8153 80.3173 37.9567V37.8588C80.3173 37.5001 80.2101 37.2283 79.9959 37.0435C79.7816 36.8585 79.4707 36.7606 79.0743 36.7606C78.6136 36.7606 78.1316 36.8693 77.6278 37.087L77.3171 36.141C77.9387 35.8584 78.5815 35.7168 79.2457 35.7168C79.9852 35.7168 80.5315 35.9019 80.9065 36.2823C81.2817 36.6628 81.4638 37.1957 81.4638 37.8914V40.936L81.4424 40.9142ZM80.3173 39.0548V38.7613C79.9745 38.62 79.5888 38.5548 79.16 38.5548C78.7958 38.5548 78.5065 38.6309 78.303 38.7722C78.0994 38.9135 77.9923 39.1201 77.9923 39.3703C77.9923 39.5986 78.0887 39.7834 78.2708 39.9247C78.4529 40.0661 78.6886 40.1313 78.9672 40.1313C79.3528 40.1313 79.6745 40.0335 79.9316 39.8269C80.1887 39.6312 80.3066 39.3703 80.3066 39.044L80.3173 39.0548Z" fill="#F9F9F9"/>
<path d="M83.7783 40.9141V35.7713H84.9142V39.218C85.9748 37.6847 86.7785 36.5433 87.3141 35.7713H88.4071V40.9141H87.282V37.4891L84.8713 40.9141H83.7783ZM87.0999 34.8144C86.832 35.0535 86.4999 35.184 86.0929 35.184C85.6855 35.184 85.3534 35.0644 85.0856 34.8144C84.8177 34.5644 84.6463 34.2383 84.5821 33.8249L85.2891 33.6836C85.4284 34.1293 85.6855 34.347 86.0819 34.347C86.4785 34.347 86.7463 34.1293 86.8749 33.6836L87.5713 33.8249C87.507 34.2383 87.3463 34.5752 87.0784 34.8144H87.0999Z" fill="#F9F9F9"/>
<path d="M91.9109 40.9146V36.7827H90.2822V35.7715H94.7075V36.7827H93.0788V40.9146H91.9109Z" fill="#F9F9F9"/>
<path d="M98.8006 41.0352C98.0292 41.0352 97.3969 40.7743 96.8827 40.2522C96.3684 39.7304 96.1113 39.0997 96.1113 38.3496C96.1113 37.5993 96.3684 36.9688 96.8827 36.4467C97.3969 35.925 98.0399 35.6641 98.8113 35.6641C99.5829 35.6641 100.215 35.925 100.729 36.4467C101.244 36.9688 101.501 37.5993 101.501 38.3496C101.501 39.0997 101.244 39.7196 100.729 40.2414C100.215 40.7634 99.5614 41.0243 98.7898 41.0243L98.8006 41.0352ZM98.822 40.0131C99.2829 40.0131 99.6579 39.85 99.9364 39.5348C100.215 39.2195 100.354 38.8279 100.354 38.3605C100.354 37.8928 100.204 37.5123 99.915 37.1862C99.6257 36.871 99.2508 36.7076 98.8006 36.7076C98.3506 36.7076 97.9757 36.871 97.6971 37.1862C97.4186 37.5014 97.279 37.8928 97.279 38.3605C97.279 38.8279 97.4293 39.2086 97.7185 39.5239C98.0078 39.85 98.3827 40.0131 98.822 40.0131Z" fill="#F9F9F9"/>
<path d="M103.654 40.9146V35.7715H106.258C106.762 35.7715 107.169 35.8913 107.469 36.1196C107.769 36.3479 107.919 36.6631 107.919 37.0547C107.919 37.5874 107.651 37.9896 107.105 38.229C107.801 38.4356 108.155 38.8595 108.155 39.512C108.155 39.9468 107.983 40.2838 107.651 40.5341C107.319 40.7841 106.858 40.9037 106.29 40.9037H103.665L103.654 40.9146ZM104.79 37.9026H105.98C106.215 37.9026 106.397 37.8483 106.537 37.7287C106.676 37.6091 106.74 37.4569 106.74 37.2721C106.74 37.0982 106.676 36.9566 106.558 36.8479C106.44 36.7392 106.247 36.6849 106.001 36.6849H104.79V37.9026ZM104.79 39.9903H106.108C106.387 39.9903 106.601 39.936 106.751 39.8055C106.901 39.6859 106.976 39.5229 106.976 39.3269C106.976 39.1313 106.901 38.9791 106.74 38.8704C106.579 38.7617 106.354 38.7073 106.055 38.7073H104.801V39.9903H104.79Z" fill="#F9F9F9"/>
<path d="M110.19 40.9155V39.5781H111.466V40.9155H110.19Z" fill="#F9F9F9"/>
<path d="M117.647 40.9146V35.7715H118.794L120.38 38.1527L121.976 35.7715H123.123V40.9146H121.955V37.4896L120.358 39.7946L118.773 37.5113V40.9146H117.637H117.647Z" fill="#F9F9F9"/>
<path d="M129.787 40.9142H128.641V40.2835C128.233 40.7729 127.687 41.0229 127.001 41.0229C126.497 41.0229 126.069 40.8816 125.726 40.599C125.383 40.3161 125.201 39.9247 125.201 39.4138C125.201 38.8592 125.394 38.4461 125.769 38.1635C126.144 37.8806 126.637 37.7392 127.258 37.7392C127.751 37.7392 128.223 37.8153 128.662 37.9567V37.8588C128.662 37.5001 128.555 37.2283 128.34 37.0435C128.126 36.8585 127.815 36.7606 127.419 36.7606C126.958 36.7606 126.476 36.8693 125.973 37.087L125.662 36.141C126.283 35.8584 126.926 35.7168 127.59 35.7168C128.33 35.7168 128.876 35.9019 129.251 36.2823C129.626 36.6628 129.808 37.1957 129.808 37.8914V40.936L129.787 40.9142ZM128.662 39.0548V38.7613C128.319 38.62 127.933 38.5548 127.505 38.5548C127.14 38.5548 126.851 38.6309 126.647 38.7722C126.444 38.9135 126.337 39.1201 126.337 39.3703C126.337 39.5986 126.433 39.7834 126.615 39.9247C126.798 40.0661 127.033 40.1313 127.312 40.1313C127.698 40.1313 128.019 40.0335 128.276 39.8269C128.533 39.6312 128.651 39.3703 128.651 39.044L128.662 39.0548Z" fill="#F9F9F9"/>
<path d="M132.123 42.4804V35.7825H133.28V36.6416C133.73 35.9999 134.298 35.6738 134.995 35.6738C135.638 35.6738 136.184 35.913 136.655 36.4024C137.127 36.8807 137.352 37.5441 137.352 38.3594C137.352 39.1749 137.116 39.8166 136.655 40.3057C136.195 40.784 135.638 41.0343 134.995 41.0343C134.298 41.0343 133.73 40.7297 133.28 40.1318V42.4912H132.123V42.4804ZM134.727 40.0122C135.134 40.0122 135.477 39.86 135.756 39.5554C136.034 39.251 136.173 38.8488 136.173 38.3485C136.173 37.8485 136.034 37.468 135.756 37.1634C135.477 36.859 135.134 36.7068 134.727 36.7068C134.32 36.7068 133.977 36.859 133.687 37.1742C133.398 37.4897 133.248 37.8811 133.248 38.3703C133.248 38.8597 133.398 39.2402 133.687 39.5554C133.977 39.86 134.33 40.0231 134.727 40.0231V40.0122Z" fill="#F9F9F9"/>
<path d="M139.506 40.9146V35.7715H140.652V38.229L142.86 35.7715H144.22L142.259 37.9352L144.392 40.9146H143.02L141.488 38.7943L140.663 39.6751V40.9146H139.517H139.506Z" fill="#F9F9F9"/>
<path d="M148.185 41.0343C147.445 41.0343 146.824 40.784 146.331 40.284C145.838 39.7839 145.592 39.1423 145.592 38.3485C145.592 37.5984 145.827 36.9677 146.288 36.4568C146.76 35.9347 147.349 35.6738 148.067 35.6738C148.838 35.6738 149.428 35.9347 149.856 36.4676C150.285 37.0003 150.499 37.6528 150.499 38.4355C150.499 38.5771 150.499 38.6858 150.478 38.7619H146.76C146.824 39.1749 146.984 39.4902 147.252 39.7185C147.52 39.947 147.842 40.0666 148.217 40.0666C148.72 40.0666 149.17 39.86 149.588 39.4576L150.263 40.0666C149.738 40.7079 149.053 41.0343 148.195 41.0343H148.185ZM146.738 37.9898H149.342C149.299 37.5984 149.17 37.2721 148.945 37.0112C148.72 36.7503 148.42 36.6307 148.056 36.6307C147.692 36.6307 147.413 36.7611 147.177 37.0112C146.942 37.2612 146.802 37.5876 146.749 37.9898H146.738Z" fill="#F9F9F9"/>
<path d="M153.509 40.9146V36.7827H151.881V35.7715H156.306V36.7827H154.677V40.9146H153.509Z" fill="#F9F9F9"/>
<path d="M158.192 40.9146V35.7715H159.328V39.2182C160.389 37.6852 161.193 36.5436 161.728 35.7715H162.821V40.9146H161.696V37.4896L159.285 40.9146H158.192Z" fill="#F9F9F9"/>
<path d="M165.231 40.9146V35.7715H166.389V37.8592H168.617V35.7715H169.775V40.9146H168.617V38.8378H166.389V40.9146H165.231Z" fill="#F9F9F9"/>
<path d="M172.196 40.9146V35.7715H175.786V36.7827H173.364V40.9146H172.207H172.196Z" fill="#F9F9F9"/>
<path d="M32.8945 0.0644531H25.6943V28.4974H46.3414V22.0823H32.8945V0.0644531Z" fill="#F9F9F9"/>
<path d="M88.45 18.5812L81.4855 0.0644531H73.5244L84.9677 28.6604H91.8144L103.301 0.0644531H95.4466L88.45 18.5812Z" fill="#F9F9F9"/>
<path d="M150.52 0.0644531V15.6998L138.273 0.0644531H132.112V28.4974H139.195V12.775L151.602 28.4974H157.571V0.0644531H150.52Z" fill="#F9F9F9"/>
<path d="M127.709 0.0644531H106.419V6.47953H127.709V0.0644531Z" fill="#F9F9F9"/>
<path d="M112.741 14.766L106.419 11.0801V17.4951H127.709V11.0801H112.741V14.766Z" fill="#F9F9F9"/>
<path d="M112.741 25.768L106.419 22.082V28.497H127.709V22.082H112.741V25.768Z" fill="#F9F9F9"/>
<path d="M0 0.0644531V6.47953V11.0788V17.4939V22.0823V28.4974H6.32169H21.9759V22.0823H6.32169V17.4939H21.9759V11.0788H6.32169V6.47953H21.9759V0.0644531H6.32169H0Z" fill="#F9F9F9"/>
<path d="M50.0703 0.0644531V6.47953V11.0788V17.4939V22.0823V28.4974H56.392H71.3604V22.0823H56.392V17.4939H71.3604V11.0788H56.392V6.47953H71.3604V0.0644531H56.392H50.0703Z" fill="#F9F9F9"/>
</g>
<defs>
<clipPath id="clip0_13043_22606">
<rect width="176" height="44" fill="white"/>
</clipPath>
</defs>
</svg>
