<svg width="102" height="91" viewBox="0 0 102 91" fill="none" xmlns="http://www.w3.org/2000/svg">
<g clip-path="url(#clip0_13029_7764)">
<path d="M7.40526 27.3248C7.40526 12.7677 18.92 0.966797 33.1243 0.966797H41.6352L0 45.6114L4.34359 38.3919C6.34525 35.065 7.40526 31.2333 7.40526 27.3248Z" fill="white"/>
<path d="M38.9897 19.884C57.779 7.48623 79.6535 0.893555 102 0.893555V33.2299L0 45.6109L38.9897 19.884Z" fill="white"/>
<path d="M7.32813 63.9031C7.32813 60.0365 6.29357 56.2445 4.33702 52.9388L0 45.6113L41.5581 90.3287H33.1133C18.8726 90.3287 7.32813 78.4978 7.32813 63.9031Z" fill="white"/>
<path d="M0 45.6113L102 57.9924V90.3287C79.6535 90.3287 57.779 83.7361 38.9897 71.3383L0 45.6113Z" fill="white"/>
</g>
<defs>
<clipPath id="clip0_13029_7764">
<rect width="102" height="89.4348" fill="white" transform="translate(0 0.893555)"/>
</clipPath>
</defs>
</svg>
