<svg width="1920" height="844" viewBox="0 0 1920 844" fill="none" xmlns="http://www.w3.org/2000/svg">
<g clip-path="url(#clip0_13029_7953)">
<path d="M890.303 249.429C890.303 112.053 781.929 0.6875 648.242 0.6875H568.14L960 422L919.119 353.87C900.28 322.473 890.303 286.314 890.303 249.429Z" fill="white"/>
<path d="M593.038 179.214C416.197 62.2154 210.32 0 0 0V305.16L960 422L593.038 179.214Z" fill="white"/>
<path d="M891.029 594.62C891.029 558.131 900.766 522.346 919.181 491.149L960 422L568.865 844H648.346C782.376 844 891.029 732.351 891.029 594.62Z" fill="white"/>
<path d="M960 422L0 538.84V844C210.32 844 416.197 781.785 593.038 664.787L960 422Z" fill="white"/>
</g>
<g clip-path="url(#clip1_13029_7953)">
<path d="M1029.7 249.429C1029.7 112.053 1138.07 0.6875 1271.76 0.6875H1351.86L960 422L1000.88 353.87C1019.72 322.473 1029.7 286.314 1029.7 249.429Z" fill="white"/>
<path d="M1326.96 179.214C1503.8 62.2154 1709.68 0 1920 0V305.16L960 422L1326.96 179.214Z" fill="white"/>
<path d="M1028.97 594.62C1028.97 558.131 1019.23 522.346 1000.82 491.149L960 422L1351.13 844H1271.65C1137.62 844 1028.97 732.351 1028.97 594.62Z" fill="white"/>
<path d="M960 422L1920 538.84V844C1709.68 844 1503.8 781.785 1326.96 664.787L960 422Z" fill="white"/>
</g>
<defs>
<clipPath id="clip0_13029_7953">
<rect width="960" height="844" fill="white" transform="matrix(-1 0 0 1 960 0)"/>
</clipPath>
<clipPath id="clip1_13029_7953">
<rect width="960" height="844" fill="white" transform="translate(960)"/>
</clipPath>
</defs>
</svg>
