<svg width="56" height="56" viewBox="0 0 56 56" fill="none" xmlns="http://www.w3.org/2000/svg">
<path d="M44.5137 26.744C44.2445 22.3418 42.57 18.6015 39.49 15.523C36.41 12.4446 32.6704 10.77 28.2713 10.4993V8.16602C30.7991 8.28579 33.1635 8.84735 35.3647 9.85068C37.5689 10.854 39.5017 12.1863 41.163 13.8477C42.8243 15.509 44.1574 17.4418 45.1623 19.646C46.1657 21.8487 46.7272 24.2139 46.847 26.7417L44.5137 26.744ZM35.1803 26.744C34.9112 24.9489 34.1412 23.4081 32.8703 22.1217C31.5994 20.8352 30.0664 20.0722 28.2713 19.8327V17.4993C30.7213 17.7389 32.8065 18.7267 34.527 20.4627C36.2474 22.1987 37.243 24.2925 37.5137 26.744H35.1803ZM44.173 46.666C40.239 46.666 36.2062 45.6813 32.0747 43.712C27.9431 41.7427 24.0978 38.9777 20.5387 35.417C17.0075 31.8579 14.2573 28.0196 12.288 23.902C10.3187 19.7845 9.33398 15.7602 9.33398 11.8293C9.33398 11.1293 9.56732 10.5382 10.034 10.056C10.5007 9.57379 11.084 9.33268 11.784 9.33268H17.5543C18.189 9.33268 18.7428 9.53257 19.2157 9.93235C19.6885 10.3321 20.0082 10.8447 20.1747 11.47L21.332 17.0327C21.4409 17.686 21.4214 18.2561 21.2737 18.743C21.1259 19.2299 20.8669 19.6289 20.4967 19.94L15.3773 24.714C16.3355 26.4516 17.3941 28.0662 18.553 29.558C19.7119 31.0498 20.9485 32.463 22.263 33.7977C23.6163 35.151 25.0739 36.411 26.6357 37.5777C28.1974 38.7428 29.9117 39.8426 31.7783 40.877L36.7693 35.7973C37.1489 35.3882 37.5759 35.1183 38.0503 34.9877C38.5232 34.8586 39.0474 34.8329 39.623 34.9107L44.53 35.914C45.1647 36.0696 45.6795 36.3892 46.0747 36.873C46.4698 37.3568 46.6673 37.9106 46.6673 38.5343V44.216C46.6673 44.916 46.4262 45.4993 45.944 45.966C45.4618 46.4327 44.873 46.666 44.173 46.666ZM14.2853 22.5253L18.7653 18.407C18.9131 18.2872 19.0095 18.1223 19.0547 17.9123C19.1013 17.7023 19.0935 17.5079 19.0313 17.329L17.9977 12.3823C17.937 12.1443 17.832 11.9655 17.6827 11.8457C17.5333 11.7259 17.3381 11.666 17.097 11.666H12.309C12.1301 11.666 11.9808 11.7259 11.861 11.8457C11.7412 11.9655 11.6813 12.1148 11.6813 12.2937C11.7264 13.8881 11.9761 15.5526 12.4303 17.287C12.8845 19.0215 13.5021 20.7676 14.283 22.5253M33.9997 41.9714C35.577 42.7522 37.257 43.3301 39.0397 43.705C40.8254 44.0784 42.381 44.2782 43.7063 44.3047C43.8852 44.3047 44.0345 44.2448 44.1543 44.125C44.2741 44.0052 44.334 43.8567 44.334 43.6793V38.994C44.334 38.756 44.2741 38.5616 44.1543 38.4107C44.0345 38.2613 43.8557 38.1571 43.6177 38.098L39.301 37.2137C39.1205 37.153 38.9627 37.1452 38.8273 37.1903C38.6935 37.237 38.552 37.3342 38.4027 37.482L33.9997 41.9714Z" fill="#1D1D1B"/>
</svg>
