<svg width="56" height="56" viewBox="0 0 56 56" fill="none" xmlns="http://www.w3.org/2000/svg">
<path d="M28 49C25.0942 49 22.3642 48.4493 19.81 47.348C17.2558 46.2467 15.0337 44.7502 13.1437 42.8587C11.2537 40.9671 9.75722 38.7458 8.65433 36.1947C7.55144 33.6436 7 30.9143 7 28.007C7 25.0997 7.55144 22.3697 8.65433 19.817C9.75567 17.2612 11.2498 15.0376 13.1367 13.146C15.0236 11.2544 17.2457 9.75722 19.803 8.65433C22.3603 7.55144 25.0903 7 27.993 7C30.8957 7 33.6257 7.55144 36.183 8.65433C38.7403 9.75722 40.964 11.2537 42.854 13.1437C44.744 15.0337 46.2412 17.2558 47.3457 19.81C48.4501 22.3642 49.0016 25.0942 49 28V30.3077C49 32.2723 48.3249 33.9344 46.9747 35.294C45.6244 36.6536 43.9662 37.3333 42 37.3333C40.6093 37.3333 39.3416 36.9522 38.1967 36.19C37.0502 35.4278 36.2024 34.412 35.6533 33.1427C34.7667 34.4198 33.6583 35.4371 32.3283 36.1947C30.9983 36.9522 29.5556 37.3318 28 37.3333C25.4007 37.3333 23.1957 36.428 21.385 34.6173C19.5728 32.8036 18.6667 30.5978 18.6667 28C18.6667 25.4022 19.5728 23.1972 21.385 21.385C23.1972 19.5728 25.4022 18.6667 28 18.6667C30.5978 18.6667 32.8036 19.5728 34.6173 21.385C36.4311 23.1972 37.3364 25.4022 37.3333 28V30.3077C37.3333 31.5863 37.7914 32.6884 38.7077 33.614C39.6239 34.5396 40.7213 35.0016 42 35C43.2787 34.9984 44.3769 34.5364 45.2947 33.614C46.2124 32.6916 46.6698 31.5887 46.6667 30.3053V28C46.6667 22.7889 44.8583 18.375 41.2417 14.7583C37.625 11.1417 33.2111 9.33333 28 9.33333C22.7889 9.33333 18.375 11.1417 14.7583 14.7583C11.1417 18.375 9.33333 22.7889 9.33333 28C9.33333 33.2111 11.1417 37.625 14.7583 41.2417C18.375 44.8583 22.7889 46.6667 28 46.6667H38.5C38.8313 46.6667 39.1082 46.7787 39.3307 47.0027C39.5531 47.2267 39.6651 47.5043 39.6667 47.8357C39.6682 48.167 39.5562 48.4439 39.3307 48.6663C39.1051 48.8888 38.8282 49 38.5 49H28ZM28 35C29.9444 35 31.5972 34.3194 32.9583 32.9583C34.3194 31.5972 35 29.9444 35 28C35 26.0556 34.3194 24.4028 32.9583 23.0417C31.5972 21.6806 29.9444 21 28 21C26.0556 21 24.4028 21.6806 23.0417 23.0417C21.6806 24.4028 21 26.0556 21 28C21 29.9444 21.6806 31.5972 23.0417 32.9583C24.4028 34.3194 26.0556 35 28 35Z" fill="#1D1D1B"/>
</svg>
