<svg width="304" height="42" viewBox="0 0 304 42" fill="none" xmlns="http://www.w3.org/2000/svg">
<g clip-path="url(#clip0_13082_409)">
<path d="M144.649 2.23969C142.399 0.962941 139.218 0.341797 134.925 0.341797C125.284 0.341797 121.169 3.77419 121.169 11.821V11.8601C121.169 19.9141 125.282 23.3462 134.925 23.3462C139.218 23.3462 142.399 22.7251 144.649 21.4483C147.221 19.9899 148.512 17.7078 148.587 14.4804H142.846C142.657 18.2047 138.937 18.7271 134.927 18.7271C129.549 18.7271 126.818 17.6665 126.818 11.867V11.8235C126.818 6.02394 129.549 4.96337 134.927 4.96337C138.939 4.96337 142.659 5.48573 142.846 9.21007H148.587C148.512 5.98263 147.223 3.70276 144.649 2.24214V2.23969Z" fill="#1D1D1B"/>
<path d="M240.626 22.6999V0.988388H235.574V9.48615H219.855V0.988388H214.803V22.6999H219.855V14.0111H235.574V22.6999H240.626Z" fill="#1D1D1B"/>
<path d="M272.453 11.821C272.453 3.78787 268.352 0.353289 258.745 0.341797C249.138 0.353289 245.036 3.78787 245.036 11.821V11.8601C245.036 19.9001 249.138 23.3347 258.745 23.3462C268.352 23.3347 272.453 19.9001 272.453 11.8601V11.821ZM266.806 11.8648C266.806 17.6482 264.091 18.7178 258.745 18.7246C253.395 18.7178 250.681 17.6457 250.681 11.8648V11.821C250.681 6.03763 253.398 4.96802 258.745 4.96118C264.091 4.96802 266.806 6.04009 266.806 11.821V11.8648Z" fill="#1D1D1B"/>
<path d="M300.733 11.453L300.284 11.2344L300.689 10.9399C302.147 9.87252 302.889 8.56375 302.889 7.04758C302.889 4.62981 301.797 2.92293 299.548 1.83472C297.471 0.829682 294.409 0.990569 290.19 0.990569H290.173C290.075 0.990569 289.982 0.990568 289.886 0.992757H276.864V22.6999H290.19C296.606 22.6999 303.972 22.5319 303.972 16.201C303.972 14.0686 302.914 12.5158 300.733 11.453ZM290.19 5.60748C295.121 5.61678 297.321 5.33385 297.321 7.46158C297.321 9.58958 294.42 9.89084 292.239 9.89084H281.915V5.60748H290.19ZM290.19 18.0805H281.915V13.7512H292.904C295.561 13.7512 298.278 14.018 298.278 16.0056C298.278 17.9932 296.087 18.0805 290.19 18.0805Z" fill="#1D1D1B"/>
<path d="M166.634 8.49918H158.889V0.990576H153.837V22.6999H166.632C173.05 22.6999 180.416 21.9315 180.416 15.6006C180.416 9.26999 173.05 8.50165 166.632 8.50165L166.634 8.49918ZM166.634 18.0805H158.889V13.1161H166.634C172.533 13.1161 174.725 13.6155 174.725 15.5984C174.725 17.5814 172.533 18.0805 166.634 18.0805Z" fill="#1D1D1B"/>
<path d="M196.598 0.990576C190.179 0.990576 182.813 1.75892 182.813 8.08984C182.813 11.8695 185.44 13.6661 188.923 14.5012L184.665 21.8763V22.6999H190.023L194.38 15.1522C195.123 15.1798 195.868 15.1888 196.6 15.1888H204.872V22.6974H209.924V0.990576H196.598ZM204.87 10.5719H196.598C190.699 10.5719 188.507 10.0728 188.507 8.08984C188.507 6.10686 190.699 5.60749 196.598 5.60749H204.87V10.5719Z" fill="#1D1D1B"/>
<path d="M120.405 21.8763L106.538 0.990576H101.486L87.635 21.8533V22.6999H93.1354L96.1467 18.1656H111.877L114.888 22.6999H120.405V21.8763ZM99.2108 13.544L104.009 6.31372L108.808 13.544H99.2086H99.2108Z" fill="#1D1D1B"/>
<path d="M86.2523 1.7819V0.960748H78.5229L63.2802 11.1632V0.960748H58.2285V22.6698H63.2802V17.0339L72.5923 10.8527L80.4391 22.6698H86.1582V21.8464L76.7999 8.05754L86.2523 1.7819Z" fill="#1D1D1B"/>
<path d="M3.26737 12.2858C3.26737 6.07009 8.30621 1.03125 14.5219 1.03125H18.2441L0.0273438 20.0938L1.92769 17.0111C2.80357 15.5907 3.26737 13.9547 3.26737 12.2858Z" fill="#1D1D1B"/>
<path d="M17.0869 9.1084C25.3075 3.81508 34.8784 1 44.6557 1V14.8072L0.0273438 20.0937L17.0869 9.1084Z" fill="#1D1D1B"/>
<path d="M3.23344 27.9039C3.23344 26.2531 2.78086 24.634 1.92495 23.2227L0.0273438 20.0938L18.2104 39.1875H14.5173C8.28542 39.1875 3.23344 34.1355 3.23344 27.9039Z" fill="#1D1D1B"/>
<path d="M0.0273438 20.0938L44.6557 25.3802V39.1875C34.8784 39.1875 25.3075 36.3727 17.0872 31.0791L0.0273438 20.0938Z" fill="#1D1D1B"/>
<path d="M58.2822 39.0741V29.7039H59.4379V38.0269H64.2068V29.7039H65.3625V38.0269H66.4918V41.6589H65.3361V39.0741H58.2822Z" fill="#1D1D1B"/>
<path d="M68.5057 35.9993C68.5326 36.3085 68.5946 36.5957 68.6916 36.8609C68.7978 37.1169 68.9396 37.3423 69.1169 37.537C69.2943 37.7311 69.511 37.886 69.7676 38.0006C70.0333 38.1065 70.3389 38.1598 70.6845 38.1598C70.8527 38.1598 71.0251 38.1463 71.2025 38.12C71.3885 38.0845 71.5609 38.0317 71.7205 37.9607C71.8801 37.8811 72.0218 37.7795 72.1458 37.6558C72.2698 37.5321 72.3625 37.382 72.4245 37.2056H73.5802C73.5004 37.5412 73.3635 37.8328 73.1684 38.0802C72.9824 38.3276 72.7565 38.5309 72.4908 38.6901C72.2342 38.8487 71.9464 38.9681 71.6278 39.0477C71.3087 39.1182 70.9852 39.1537 70.6581 39.1537C70.1001 39.1537 69.6129 39.0655 69.1967 38.8885C68.7892 38.7121 68.4485 38.469 68.1736 38.1598C67.8992 37.8414 67.6955 37.4659 67.5629 37.033C67.4297 36.5914 67.3634 36.1095 67.3634 35.5884C67.3634 35.0672 67.434 34.5901 67.5758 34.1572C67.7267 33.7151 67.9391 33.3354 68.2135 33.017C68.4879 32.6991 68.8248 32.4517 69.2231 32.2748C69.6215 32.0983 70.0953 32.0096 70.6446 32.0096C71.2025 32.0096 71.6849 32.1204 72.0924 32.3414C72.5 32.5619 72.8277 32.8535 73.0756 33.216C73.3236 33.5693 73.4961 33.9539 73.5937 34.3691C73.6998 34.7843 73.7441 35.1688 73.7263 35.5222C73.7263 35.6018 73.722 35.6814 73.7128 35.761C73.7128 35.8401 73.7085 35.9197 73.6999 35.9993H68.5057ZM72.584 35.0183C72.5663 34.4266 72.3803 33.9447 72.0262 33.5736C71.672 33.2025 71.1982 33.017 70.6047 33.017C70.277 33.017 69.9891 33.0702 69.7411 33.1762C69.4932 33.2821 69.2851 33.4279 69.1169 33.6134C68.9487 33.799 68.8156 34.0157 68.7186 34.2631C68.621 34.5014 68.559 34.7537 68.5326 35.0183H72.584Z" fill="#1D1D1B"/>
<path d="M75.2437 39.0741V32.0892H76.373V35.1511H79.88V32.0892H81.0093V39.0741H79.88V36.145H76.373V39.0741H75.2437Z" fill="#1D1D1B"/>
<path d="M87.9612 32.0892V33.0836H85.5566V39.0741H84.4278V33.0836H82.0232V32.0892H87.9612Z" fill="#1D1D1B"/>
<path d="M90.098 41.5928H88.9687V32.0892H90.0447L90.098 33.1627C90.3368 32.783 90.6602 32.5001 91.0677 32.3145C91.4839 32.1204 91.9307 32.0187 92.4094 32.0096C92.9495 32.0096 93.4056 32.1026 93.7775 32.2882C94.1581 32.4651 94.4723 32.7169 94.7203 33.0439C94.9774 33.3617 95.1677 33.742 95.2917 34.1835C95.4156 34.6165 95.4776 35.085 95.4776 35.5884C95.4776 36.1009 95.4156 36.5737 95.2917 37.0066C95.1677 37.4396 94.9774 37.815 94.7203 38.1334C94.4637 38.4513 94.1403 38.703 93.7511 38.8885C93.3614 39.0655 92.8962 39.1537 92.356 39.1537C91.8246 39.1537 91.3729 39.0698 91.0009 38.902C90.629 38.7342 90.3282 38.5131 90.098 38.2393V41.5928ZM92.2633 38.1598C92.6439 38.1598 92.9625 38.0936 93.2196 37.9607C93.4853 37.8193 93.6977 37.6338 93.8573 37.4041C94.0255 37.1658 94.1451 36.8915 94.2157 36.5823C94.2955 36.273 94.3397 35.9417 94.3483 35.5884C94.3483 35.235 94.309 34.9037 94.2292 34.5944C94.1581 34.276 94.0384 34.0023 93.8702 33.7726C93.702 33.543 93.4805 33.3617 93.2061 33.2294C92.9404 33.0879 92.6175 33.017 92.2364 33.017C91.7847 33.017 91.3949 33.1407 91.0677 33.3881C90.74 33.6269 90.4921 33.9318 90.3239 34.3029C90.2263 34.5062 90.16 34.7181 90.1244 34.9392C90.0888 35.1511 90.071 35.3721 90.071 35.6018C90.071 35.867 90.0888 36.1144 90.1244 36.344C90.16 36.5651 90.2263 36.777 90.3239 36.9803C90.4921 37.3159 90.7357 37.5988 91.0543 37.8285C91.382 38.0495 91.7847 38.1598 92.2633 38.1598Z" fill="#1D1D1B"/>
<path d="M101.311 33.6269C101.32 33.3703 101.325 33.1143 101.325 32.8583C101.325 32.6017 101.325 32.3457 101.325 32.0892H106.292V38.0936H107.209V41.2217H106.12V39.0741H101.006V41.2217H99.9161V38.0936C100.271 38.0936 100.549 37.9344 100.753 37.6166C100.877 37.4396 100.975 37.1879 101.045 36.8609C101.117 36.5253 101.169 36.1714 101.205 35.8003C101.249 35.3942 101.276 34.9919 101.285 34.5944C101.303 34.1878 101.311 33.8657 101.311 33.6269ZM105.164 33.0836H102.401C102.391 33.4548 102.383 33.87 102.374 34.3293C102.365 34.7886 102.347 35.2172 102.321 35.6147C102.312 35.7916 102.299 35.9858 102.281 36.1983C102.263 36.4016 102.232 36.6135 102.188 36.8345C102.153 37.0464 102.095 37.2627 102.015 37.4837C101.945 37.7048 101.843 37.908 101.709 38.0936H105.164V33.0836Z" fill="#1D1D1B"/>
<path d="M111.47 32.0096C112.028 32.0096 112.511 32.0983 112.918 32.2748C113.325 32.4517 113.666 32.6991 113.941 33.017C114.224 33.3354 114.432 33.7151 114.565 34.1572C114.707 34.5901 114.778 35.0672 114.778 35.5884C114.778 36.1095 114.707 36.5914 114.565 37.033C114.432 37.4659 114.224 37.8414 113.941 38.1598C113.666 38.469 113.321 38.7121 112.905 38.8885C112.489 39.0655 112.001 39.1537 111.443 39.1537C110.886 39.1537 110.399 39.0655 109.983 38.8885C109.575 38.7121 109.23 38.469 108.946 38.1598C108.672 37.8414 108.464 37.4659 108.322 37.033C108.189 36.5914 108.122 36.1095 108.122 35.5884C108.122 35.0672 108.189 34.5901 108.322 34.1572C108.464 33.7151 108.672 33.3354 108.946 33.017C109.23 32.6991 109.579 32.4517 109.996 32.2748C110.412 32.0983 110.903 32.0096 111.47 32.0096ZM111.443 38.1598C111.825 38.1598 112.152 38.0936 112.427 37.9607C112.71 37.8284 112.94 37.6472 113.117 37.4176C113.303 37.1788 113.436 36.905 113.516 36.5957C113.604 36.2865 113.649 35.9509 113.649 35.5884C113.649 35.235 113.604 34.9037 113.516 34.5944C113.436 34.276 113.303 34.0023 113.117 33.7726C112.94 33.5338 112.71 33.3483 112.427 33.216C112.152 33.0837 111.825 33.017 111.443 33.017C111.063 33.017 110.735 33.0837 110.461 33.216C110.186 33.3483 109.956 33.5338 109.77 33.7726C109.593 34.0023 109.46 34.276 109.371 34.5944C109.292 34.9037 109.252 35.235 109.252 35.5884C109.252 35.9509 109.292 36.2865 109.371 36.5957C109.46 36.905 109.593 37.1788 109.77 37.4176C109.956 37.6472 110.186 37.8284 110.461 37.9607C110.735 38.0936 111.063 38.1598 111.443 38.1598Z" fill="#1D1D1B"/>
<path d="M118.643 36.4102L116.73 39.0741H115.455L117.952 35.5088L115.574 32.0892H116.929L118.709 34.7402L120.434 32.0892H121.749L119.387 35.5486L121.922 39.0741H120.58L118.643 36.4102Z" fill="#1D1D1B"/>
<path d="M125.949 32.0096C126.504 32.0096 126.989 32.0983 127.393 32.2748C127.803 32.4517 128.142 32.6991 128.417 33.017C128.703 33.3354 128.908 33.7151 129.043 34.1572C129.183 34.5901 129.253 35.0672 129.253 35.5884C129.253 36.1095 129.183 36.5914 129.043 37.033C128.908 37.4659 128.703 37.8414 128.417 38.1598C128.142 38.469 127.797 38.7121 127.382 38.8885C126.967 39.0655 126.477 39.1537 125.922 39.1537C125.361 39.1537 124.876 39.0655 124.461 38.8885C124.051 38.7121 123.706 38.469 123.426 38.1598C123.151 37.8414 122.941 37.4659 122.801 37.033C122.666 36.5914 122.601 36.1095 122.601 35.5884C122.601 35.0672 122.666 34.5901 122.801 34.1572C122.941 33.7151 123.151 33.3354 123.426 33.017C123.706 32.6991 124.057 32.4517 124.472 32.2748C124.887 32.0983 125.383 32.0096 125.949 32.0096ZM125.922 38.1598C126.304 38.1598 126.628 38.0936 126.903 37.9607C127.188 37.8284 127.42 37.6472 127.593 37.4176C127.781 37.1788 127.916 36.905 127.991 36.5957C128.083 36.2865 128.126 35.9509 128.126 35.5884C128.126 35.235 128.083 34.9037 127.991 34.5944C127.916 34.276 127.781 34.0023 127.593 33.7726C127.42 33.5338 127.188 33.3483 126.903 33.216C126.628 33.0837 126.304 33.017 125.922 33.017C125.539 33.017 125.21 33.0837 124.935 33.216C124.666 33.3483 124.434 33.5338 124.245 33.7726C124.067 34.0023 123.938 34.276 123.846 34.5944C123.771 34.9037 123.728 35.235 123.728 35.5884C123.728 35.9509 123.771 36.2865 123.846 36.5957C123.938 36.905 124.067 37.1788 124.245 37.4176C124.434 37.6472 124.666 37.8284 124.935 37.9607C125.21 38.0936 125.539 38.1598 125.922 38.1598Z" fill="#1D1D1B"/>
<path d="M131.409 33.6269C131.414 33.3703 131.42 33.1143 131.42 32.8583C131.42 32.6017 131.42 32.3457 131.42 32.0892H136.39V38.0936H137.306V41.2217H136.217V39.0741H131.102V41.2217H130.013V38.0936C130.369 38.0936 130.644 37.9344 130.848 37.6166C130.972 37.4396 131.069 37.1879 131.14 36.8609C131.21 36.5253 131.263 36.1714 131.301 35.8003C131.344 35.3942 131.371 34.9919 131.382 34.5944C131.398 34.1878 131.409 33.8657 131.409 33.6269ZM135.258 33.0836H132.498C132.487 33.4548 132.476 33.87 132.471 34.3293C132.46 34.7886 132.444 35.2172 132.417 35.6147C132.406 35.7916 132.395 35.9858 132.379 36.1983C132.358 36.4016 132.331 36.6135 132.282 36.8345C132.25 37.0464 132.191 37.2627 132.11 37.4837C132.04 37.7048 131.937 37.908 131.808 38.0936H135.258V33.0836Z" fill="#1D1D1B"/>
<path d="M138.487 39.0741V32.0892H139.613V35.1511H143.122V32.0892H144.249V39.0741H143.122V36.145H139.613V39.0741H138.487Z" fill="#1D1D1B"/>
<path d="M149.117 32.0096C149.672 32.0096 150.157 32.0983 150.567 32.2748C150.971 32.4517 151.31 32.6991 151.585 33.017C151.871 33.3354 152.076 33.7151 152.211 34.1572C152.351 34.5901 152.426 35.0672 152.426 35.5884C152.426 36.1095 152.351 36.5914 152.211 37.033C152.076 37.4659 151.871 37.8414 151.585 38.1598C151.31 38.469 150.965 38.7121 150.55 38.8885C150.135 39.0655 149.645 39.1537 149.09 39.1537C148.529 39.1537 148.044 39.0655 147.629 38.8885C147.219 38.7121 146.874 38.469 146.594 38.1598C146.319 37.8414 146.109 37.4659 145.968 37.033C145.834 36.5914 145.769 36.1095 145.769 35.5884C145.769 35.0672 145.834 34.5901 145.968 34.1572C146.109 33.7151 146.319 33.3354 146.594 33.017C146.874 32.6991 147.224 32.4517 147.639 32.2748C148.06 32.0983 148.551 32.0096 149.117 32.0096ZM149.09 38.1598C149.472 38.1598 149.796 38.0936 150.071 37.9607C150.356 37.8284 150.588 37.6472 150.761 37.4176C150.949 37.1788 151.084 36.905 151.159 36.5957C151.251 36.2865 151.294 35.9509 151.294 35.5884C151.294 35.235 151.251 34.9037 151.159 34.5944C151.084 34.276 150.949 34.0023 150.761 33.7726C150.588 33.5338 150.356 33.3483 150.071 33.216C149.796 33.0837 149.472 33.017 149.09 33.017C148.707 33.017 148.383 33.0837 148.108 33.216C147.834 33.3483 147.602 33.5338 147.413 33.7726C147.241 34.0023 147.106 34.276 147.02 34.5944C146.939 34.9037 146.896 35.235 146.896 35.5884C146.896 35.9509 146.939 36.2865 147.02 36.5957C147.106 36.905 147.241 37.1788 147.413 37.4176C147.602 37.6472 147.834 37.8284 148.108 37.9607C148.383 38.0936 148.707 38.1598 149.09 38.1598Z" fill="#1D1D1B"/>
<path d="M157.11 30.2998C157.482 30.2998 157.779 30.2293 158 30.0879C158.232 29.9464 158.345 29.6991 158.345 29.3457H159.38C159.364 29.982 159.148 30.4461 158.744 30.7376C158.345 31.0291 157.795 31.1749 157.094 31.1749C156.399 31.1749 155.849 31.0291 155.45 30.7376C155.057 30.4461 154.857 29.982 154.836 29.3457H155.876C155.881 29.6991 156 29.9464 156.221 30.0879C156.442 30.2293 156.739 30.2998 157.11 30.2998ZM155.035 39.0741H153.936V32.0892H155.062V37.4439C155.127 37.3202 155.208 37.1879 155.315 37.0464C155.423 36.8964 155.504 36.7813 155.569 36.7017L158.954 32.0892H160.07V39.0741H158.943V33.7194C158.873 33.8522 158.792 33.9802 158.701 34.1039C158.625 34.219 158.55 34.3207 158.48 34.4089L155.035 39.0741Z" fill="#1D1D1B"/>
<path d="M165.929 39.0902V32.1053H167.058V35.1672H170.565V32.1053H171.694V39.0902H170.565V36.1612H167.058V39.0902H165.929Z" fill="#1D1D1B"/>
<path d="M174.356 36.0154C174.382 36.3247 174.444 36.6119 174.542 36.877C174.648 37.133 174.79 37.3584 174.967 37.5531C175.144 37.7473 175.361 37.9022 175.618 38.0167C175.884 38.1227 176.189 38.1759 176.534 38.1759C176.703 38.1759 176.875 38.1625 177.052 38.1361C177.238 38.1006 177.411 38.0479 177.571 37.9769C177.73 37.8973 177.872 37.7957 177.996 37.672C178.12 37.5483 178.213 37.3982 178.275 37.2218H179.43C179.351 37.5574 179.213 37.8489 179.019 38.0963C178.833 38.3437 178.607 38.547 178.341 38.7062C178.084 38.8649 177.796 38.9843 177.478 39.0639C177.159 39.1344 176.836 39.1698 176.508 39.1698C175.95 39.1698 175.463 39.0816 175.046 38.9047C174.639 38.7283 174.298 38.4852 174.024 38.1759C173.75 37.8575 173.546 37.4821 173.413 37.0491C173.28 36.6076 173.214 36.1257 173.214 35.6045C173.214 35.0834 173.284 34.6063 173.426 34.1733C173.576 33.7312 173.789 33.3515 174.064 33.0331C174.338 32.7153 174.675 32.4679 175.073 32.2909C175.472 32.1145 175.946 32.0257 176.494 32.0257C177.052 32.0257 177.535 32.1365 177.943 32.3576C178.35 32.5781 178.677 32.8696 178.925 33.2321C179.173 33.5855 179.346 33.97 179.443 34.3852C179.55 34.8004 179.594 35.185 179.577 35.5383C179.577 35.6179 179.572 35.6976 179.563 35.7772C179.563 35.8562 179.559 35.9358 179.55 36.0154H174.356ZM178.434 35.0344C178.417 34.4428 178.231 33.9609 177.876 33.5898C177.522 33.2187 177.048 33.0331 176.455 33.0331C176.127 33.0331 175.839 33.0863 175.591 33.1923C175.343 33.2983 175.135 33.444 174.967 33.6296C174.799 33.8151 174.666 34.0319 174.568 34.2793C174.471 34.5175 174.409 34.7698 174.382 35.0344H178.434Z" fill="#1D1D1B"/>
<path d="M181.735 33.643C181.744 33.3865 181.748 33.1304 181.748 32.8744C181.748 32.6179 181.748 32.3619 181.748 32.1053H186.717V38.1097H187.633V41.2378H186.544V39.0902H181.43V41.2378H180.34V38.1097C180.695 38.1097 180.974 37.9506 181.177 37.6327C181.301 37.4558 181.399 37.204 181.47 36.877C181.54 36.5414 181.594 36.1875 181.629 35.8164C181.673 35.4104 181.7 35.0081 181.709 34.6106C181.726 34.204 181.735 33.8818 181.735 33.643ZM185.587 33.0998H182.825C182.816 33.4709 182.807 33.8861 182.798 34.3454C182.789 34.8048 182.771 35.2334 182.745 35.6309C182.736 35.8078 182.723 36.002 182.705 36.2144C182.687 36.4177 182.656 36.6296 182.612 36.8507C182.577 37.0626 182.519 37.2788 182.439 37.4999C182.368 37.7209 182.267 37.9242 182.134 38.1097H185.587V33.0998Z" fill="#1D1D1B"/>
<path d="M188.812 32.1053H191.522C191.974 32.1053 192.359 32.1365 192.678 32.1984C193.006 32.2603 193.28 32.3705 193.502 32.5297C193.697 32.662 193.847 32.839 193.953 33.06C194.069 33.2805 194.126 33.5414 194.126 33.842C194.126 34.5396 193.812 35.0392 193.183 35.3393C193.661 35.4453 194.007 35.6529 194.219 35.9627C194.431 36.272 194.538 36.6253 194.538 37.0228C194.529 37.3939 194.467 37.6988 194.352 37.9371C194.237 38.1668 194.073 38.3701 193.861 38.547C193.657 38.7148 193.404 38.8477 193.103 38.9445C192.802 39.0418 192.461 39.0902 192.08 39.0902H188.812V32.1053ZM189.968 33.0998V35.0877H190.938C191.159 35.0877 191.385 35.0833 191.615 35.0742C191.846 35.057 192.049 35.0172 192.226 34.9553C192.448 34.8843 192.634 34.7698 192.784 34.6106C192.935 34.4514 193.015 34.2615 193.023 34.0405C193.023 33.7845 192.966 33.5989 192.851 33.4838C192.744 33.3601 192.612 33.2719 192.452 33.2187C192.293 33.1568 192.12 33.1219 191.934 33.1127C191.748 33.1041 191.576 33.0998 191.416 33.0998H189.968ZM189.968 38.1097H191.814C192.018 38.1097 192.213 38.0963 192.399 38.07C192.594 38.0431 192.762 37.9947 192.904 37.9242C193.046 37.8446 193.161 37.7386 193.249 37.6058C193.338 37.4735 193.387 37.3057 193.395 37.1024C193.395 36.8372 193.333 36.6296 193.209 36.4796C193.085 36.3204 192.917 36.2053 192.705 36.1348C192.528 36.0816 192.328 36.0509 192.107 36.0418C191.886 36.0332 191.655 36.0289 191.416 36.0289L189.968 36.0418V38.1097Z" fill="#1D1D1B"/>
<path d="M197.179 39.0902H196.077V32.1053H197.206V37.46C197.268 37.3363 197.352 37.2041 197.459 37.0626C197.565 36.9125 197.649 36.7974 197.711 36.7178L201.098 32.1053H202.214V39.0902H201.085V33.7355C201.014 33.8684 200.934 33.9964 200.846 34.1201C200.766 34.2352 200.691 34.3368 200.62 34.4251L197.179 39.0902Z" fill="#1D1D1B"/>
<path d="M207.59 39.0902V36.0816H206.421L204.602 39.0902H203.286L205.558 35.4324L203.486 32.1053H204.694L206.54 35.1275H207.59V32.1053H208.719V35.1275H209.769L211.615 32.1053H212.824L210.751 35.4324L213.023 39.0902H211.708L209.888 36.0816H208.719V39.0902H207.59Z" fill="#1D1D1B"/>
<path d="M215.199 39.0902H214.096V32.1053H215.225V37.46C215.287 37.3363 215.371 37.2041 215.477 37.0626C215.583 36.9125 215.667 36.7974 215.729 36.7178L219.117 32.1053H220.233V39.0902H219.104V33.7355C219.033 33.8684 218.953 33.9964 218.865 34.1201C218.785 34.2352 218.71 34.3368 218.639 34.4251L215.199 39.0902Z" fill="#1D1D1B"/>
<path d="M222.009 32.1053H223.523L225.795 35.6045L228.029 32.1053H229.517V39.0902H228.401V33.3515L225.928 37.3009H225.609L223.125 33.3515V39.0902H222.009V32.1053Z" fill="#1D1D1B"/>
<path d="M234.379 32.0257C234.939 32.0257 235.419 32.1145 235.829 32.2909C236.233 32.4679 236.573 32.7153 236.847 33.0331C237.133 33.3515 237.343 33.7312 237.473 34.1733C237.618 34.6063 237.688 35.0834 237.688 35.6045C237.688 36.1257 237.618 36.6076 237.473 37.0491C237.343 37.4821 237.133 37.8575 236.847 38.1759C236.573 38.4852 236.228 38.7283 235.813 38.9047C235.397 39.0816 234.912 39.1698 234.352 39.1698C233.796 39.1698 233.306 39.0816 232.891 38.9047C232.481 38.7283 232.136 38.4852 231.856 38.1759C231.581 37.8575 231.371 37.4821 231.231 37.0491C231.096 36.6076 231.031 36.1257 231.031 35.6045C231.031 35.0834 231.096 34.6063 231.231 34.1733C231.371 33.7312 231.581 33.3515 231.856 33.0331C232.136 32.7153 232.487 32.4679 232.907 32.2909C233.322 32.1145 233.813 32.0257 234.379 32.0257ZM234.352 38.1759C234.734 38.1759 235.063 38.1097 235.333 37.9769C235.618 37.8446 235.85 37.6634 236.028 37.4337C236.211 37.1949 236.346 36.9211 236.427 36.6119C236.513 36.3026 236.556 35.967 236.556 35.6045C236.556 35.2512 236.513 34.9198 236.427 34.6106C236.346 34.2922 236.211 34.0184 236.028 33.7888C235.85 33.55 235.618 33.3644 235.333 33.2321C235.063 33.0998 234.734 33.0331 234.352 33.0331C233.969 33.0331 233.646 33.0998 233.371 33.2321C233.096 33.3644 232.864 33.55 232.681 33.7888C232.503 34.0184 232.368 34.2922 232.282 34.6106C232.201 34.9198 232.163 35.2512 232.163 35.6045C232.163 35.967 232.201 36.3026 232.282 36.6119C232.368 36.9211 232.503 37.1949 232.681 37.4337C232.864 37.6634 233.096 37.8446 233.371 37.9769C233.646 38.1097 233.969 38.1759 234.352 38.1759Z" fill="#1D1D1B"/>
<path d="M242.184 39.1698C241.629 39.1698 241.144 39.0816 240.739 38.9047C240.33 38.7283 239.995 38.4809 239.726 38.1625C239.462 37.8446 239.262 37.4692 239.133 37.0362C238.998 36.6033 238.934 36.1305 238.934 35.618C238.934 35.1231 239.004 34.659 239.144 34.226C239.284 33.7845 239.494 33.4042 239.769 33.0864C240.044 32.7594 240.389 32.5033 240.804 32.3178C241.219 32.1231 241.726 32.0257 242.319 32.0257C242.674 32.0257 242.987 32.0656 243.262 32.1452C243.537 32.2161 243.796 32.335 244.033 32.5033C244.281 32.662 244.491 32.8744 244.669 33.1391C244.847 33.4042 244.976 33.7269 245.057 34.1066H243.898C243.769 33.7183 243.553 33.4397 243.262 33.2719C242.976 33.1041 242.642 33.0245 242.254 33.0331C241.871 33.0331 241.537 33.1084 241.241 33.2585C240.96 33.3999 240.729 33.5898 240.551 33.8286C240.384 34.0674 240.26 34.3454 240.179 34.6633C240.098 34.9726 240.06 35.2909 240.06 35.618C240.06 35.9622 240.098 36.2892 240.179 36.5984C240.27 36.9077 240.4 37.182 240.567 37.4202C240.745 37.6499 240.966 37.8354 241.241 37.9769C241.516 38.1097 241.844 38.1759 242.227 38.1759C242.41 38.1759 242.594 38.1582 242.772 38.1227C242.955 38.0877 243.127 38.0302 243.273 37.9506C243.435 37.8624 243.575 37.7472 243.688 37.6058C243.801 37.4643 243.887 37.2922 243.941 37.0889H245.111C245.035 37.4514 244.911 37.765 244.723 38.0301C244.545 38.2862 244.324 38.5029 244.06 38.6793C243.796 38.8477 243.499 38.9714 243.181 39.0504C242.863 39.13 242.529 39.1698 242.184 39.1698Z" fill="#1D1D1B"/>
<path d="M251.709 32.1053V33.0998H249.305V39.0902H248.173V33.0998H245.769V32.1053H251.709Z" fill="#1D1D1B"/>
<path d="M253.816 39.0902H252.717V32.1053H253.843V37.46C253.908 37.3363 253.989 37.2041 254.097 37.0626C254.205 36.9125 254.285 36.7974 254.35 36.7178L257.735 32.1053H258.851V39.0902H257.724V33.7355C257.649 33.8684 257.574 33.9964 257.482 34.1201C257.401 34.2352 257.331 34.3368 257.256 34.4251L253.816 39.0902Z" fill="#1D1D1B"/>
</g>
<defs>
<clipPath id="clip0_13082_409">
<rect width="304" height="41.3177" fill="white" transform="translate(0 0.341797)"/>
</clipPath>
</defs>
</svg>
