<svg width="223" height="30" viewBox="0 0 223 30" fill="none" xmlns="http://www.w3.org/2000/svg">
<g clip-path="url(#clip0_13097_28031)">
<path d="M106.108 1.37802C104.458 0.451 102.124 0 98.9749 0C91.9025 0 88.8837 2.49219 88.8837 8.33484V8.36325C88.8837 14.2111 91.9009 16.7031 98.9749 16.7031C102.124 16.7031 104.458 16.2521 106.108 15.325C107.994 14.2661 108.941 12.6091 108.997 10.2658H104.785C104.646 12.9699 101.918 13.3492 98.9765 13.3492C95.0312 13.3492 93.0282 12.5792 93.0282 8.36822V8.33662C93.0282 4.1257 95.0312 3.35563 98.9765 3.35563C101.919 3.35563 104.648 3.73491 104.785 6.43908H108.997C108.941 4.0957 107.996 2.44033 106.108 1.3798V1.37802Z" fill="white"/>
<path d="M176.512 16.2338V0.469478H172.806V6.63954H161.275V0.469478H157.57V16.2338H161.275V9.92504H172.806V16.2338H176.512Z" fill="white"/>
<path d="M199.859 8.33484C199.859 2.50212 196.85 0.00834437 189.803 0C182.756 0.00834437 179.747 2.50212 179.747 8.33484V8.36325C179.747 14.2009 182.756 16.6947 189.803 16.7031C196.85 16.6947 199.859 14.2009 199.859 8.36325V8.33484ZM195.716 8.36662C195.716 12.5658 193.725 13.3425 189.803 13.3474C185.879 13.3425 183.888 12.564 183.888 8.36662V8.33484C183.888 4.13563 185.881 3.35901 189.803 3.35404C193.725 3.35901 195.716 4.13742 195.716 8.33484V8.36662Z" fill="white"/>
<path d="M220.603 8.06762L220.274 7.90888L220.571 7.69511C221.641 6.92007 222.185 5.9698 222.185 4.86894C222.185 3.11344 221.384 1.87411 219.734 1.08398C218.211 0.354244 215.965 0.471061 212.87 0.471061H212.858C212.785 0.471061 212.717 0.47106 212.647 0.47265H203.095V16.2338H212.87C217.577 16.2338 222.98 16.1118 222.98 11.515C222.98 9.96676 222.203 8.83928 220.603 8.06762ZM212.87 3.82331C216.487 3.83007 218.1 3.62463 218.1 5.16954C218.1 6.71463 215.973 6.93337 214.373 6.93337H206.8V3.82331H212.87ZM212.87 12.8797H206.8V9.73629H214.861C216.81 9.73629 218.803 9.93001 218.803 11.3732C218.803 12.8164 217.195 12.8797 212.87 12.8797Z" fill="white"/>
<path d="M122.235 5.92292H116.553V0.471066H112.848V16.2338H122.234C126.942 16.2338 132.345 15.6759 132.345 11.0791C132.345 6.48259 126.942 5.92471 122.234 5.92471L122.235 5.92292ZM122.235 12.8797H116.553V9.27517H122.235C126.562 9.27517 128.17 9.63775 128.17 11.0776C128.17 12.5174 126.562 12.8797 122.235 12.8797Z" fill="white"/>
<path d="M144.215 0.471066C139.507 0.471066 134.103 1.02895 134.103 5.6257C134.103 8.37001 136.03 9.67451 138.585 10.2809L135.462 15.6358V16.2338H139.392L142.588 10.7535C143.133 10.7736 143.68 10.7801 144.217 10.7801H150.285V16.232H153.99V0.471066H144.215ZM150.283 7.42789H144.215C139.888 7.42789 138.28 7.06551 138.28 5.6257C138.28 4.1859 139.888 3.82331 144.215 3.82331H150.283V7.42789Z" fill="white"/>
<path d="M88.3235 15.6358L78.1512 0.471066H74.4455L64.2851 15.6191V16.2338H68.3199L70.5289 12.9415H82.0678L84.2768 16.2338H88.3235V15.6358ZM72.7765 9.5859L76.2965 4.3361L79.8168 9.5859H72.7749H72.7765Z" fill="white"/>
<path d="M63.2708 1.04563V0.449409H57.6009L46.4196 7.85723V0.449409H42.7139V16.2119H46.4196V12.1198L53.2505 7.63173L59.0065 16.2119H63.2018V15.6141L56.3369 5.60225L63.2708 1.04563Z" fill="white"/>
<path d="M2.39723 8.67172C2.39723 4.15861 6.0935 0.5 10.6531 0.5H13.3834L0.0205078 14.3409L1.41451 12.1026C2.05701 11.0713 2.39723 9.88344 2.39723 8.67172Z" fill="white"/>
<path d="M12.5346 6.36391C18.5648 2.52054 25.5856 0.476562 32.7577 0.476562V10.5017L0.0205078 14.3401L12.5346 6.36391Z" fill="white"/>
<path d="M2.37235 20.0126C2.37235 18.814 2.04035 17.6384 1.4125 16.6137L0.0205078 14.3418L13.3588 28.2054H10.6496C6.07824 28.2054 2.37235 24.5372 2.37235 20.0126Z" fill="white"/>
<path d="M0.0205078 14.3418L32.7577 18.1802V28.2054C25.5856 28.2054 18.5648 26.1616 12.5348 22.318L0.0205078 14.3418Z" fill="white"/>
<path d="M42.7529 28.1241V21.3206H43.6007V27.3638H47.0989V21.3206H47.9467V27.3638H48.7751V30.0009H47.9273V28.1241H42.7529Z" fill="white"/>
<path d="M50.2524 25.8916C50.2721 26.1161 50.3176 26.3246 50.3888 26.5172C50.4667 26.7031 50.5707 26.8667 50.7008 27.0081C50.8308 27.149 50.9898 27.2615 51.178 27.3447C51.373 27.4216 51.5972 27.4603 51.8506 27.4603C51.974 27.4603 52.1005 27.4505 52.2306 27.4314C52.367 27.4056 52.4936 27.3673 52.6106 27.3158C52.7277 27.258 52.8317 27.1842 52.9226 27.0944C53.0135 27.0045 53.0815 26.8956 53.127 26.7675H53.9748C53.9163 27.0112 53.8158 27.2228 53.6727 27.4025C53.5363 27.5821 53.3706 27.7297 53.1757 27.8453C52.9875 27.9605 52.7763 28.0472 52.5426 28.105C52.3085 28.1562 52.0713 28.1819 51.8313 28.1819C51.422 28.1819 51.0645 28.1179 50.7593 27.9894C50.4603 27.8613 50.2104 27.6848 50.0088 27.4603C49.8075 27.2291 49.658 26.9565 49.5608 26.6421C49.4631 26.3215 49.4145 25.9716 49.4145 25.5932C49.4145 25.2148 49.4663 24.8684 49.5703 24.5541C49.681 24.2331 49.8368 23.9574 50.0381 23.7262C50.2393 23.4954 50.4864 23.3158 50.7787 23.1873C51.0709 23.0592 51.4184 22.9947 51.8214 22.9947C52.2306 22.9947 52.5845 23.0752 52.8835 23.2357C53.1824 23.3958 53.4228 23.6075 53.6047 23.8707C53.7866 24.1272 53.9131 24.4064 53.9847 24.7079C54.0626 25.0094 54.095 25.2886 54.082 25.5452C54.082 25.603 54.0788 25.6608 54.0721 25.7186C54.0721 25.776 54.0689 25.8338 54.0626 25.8916H50.2524ZM53.2441 25.1793C53.231 24.7497 53.0946 24.3998 52.8348 24.1304C52.575 23.8609 52.2275 23.7262 51.7921 23.7262C51.5517 23.7262 51.3405 23.7648 51.1587 23.8418C50.9768 23.9187 50.8241 24.0245 50.7008 24.1593C50.5774 24.294 50.4797 24.4513 50.4085 24.631C50.337 24.804 50.2915 24.9872 50.2721 25.1793H53.2441Z" fill="white"/>
<path d="M55.1951 28.1241V23.0525H56.0234V25.2757H58.596V23.0525H59.4244V28.1241H58.596V25.9974H56.0234V28.1241H55.1951Z" fill="white"/>
<path d="M64.5241 23.0525V23.7746H62.7601V28.1241H61.9321V23.7746H60.1682V23.0525H64.5241Z" fill="white"/>
<path d="M66.0915 29.9529H65.2631V23.0525H66.0524L66.0915 23.832C66.2667 23.5563 66.5039 23.3509 66.8028 23.2162C67.1081 23.0752 67.4359 23.0014 67.787 22.9947C68.1832 22.9947 68.5178 23.0623 68.7906 23.197C69.0698 23.3255 69.3003 23.5083 69.4822 23.7457C69.6708 23.9765 69.8104 24.2526 69.9013 24.5732C69.9922 24.8876 70.0377 25.2277 70.0377 25.5932C70.0377 25.9654 69.9922 26.3086 69.9013 26.623C69.8104 26.9374 69.6708 27.21 69.4822 27.4411C69.2939 27.6719 69.0567 27.8547 68.7712 27.9894C68.4853 28.1179 68.1441 28.1819 67.7479 28.1819C67.358 28.1819 67.0266 28.121 66.7538 27.9992C66.481 27.8773 66.2603 27.7168 66.0915 27.518V29.9529ZM67.6799 27.4603C67.959 27.4603 68.1927 27.4122 68.3813 27.3158C68.5763 27.2131 68.7321 27.0783 68.8491 26.9116C68.9725 26.7386 69.0603 26.5394 69.1121 26.3149C69.1706 26.0903 69.203 25.8498 69.2093 25.5932C69.2093 25.3367 69.1805 25.0961 69.122 24.8716C69.0698 24.6404 68.982 24.4416 68.8586 24.2748C68.7352 24.1081 68.5727 23.9765 68.3715 23.8804C68.1765 23.7777 67.9397 23.7262 67.6601 23.7262C67.3287 23.7262 67.0428 23.816 66.8028 23.9956C66.5624 24.169 66.3805 24.3904 66.2572 24.6599C66.1856 24.8075 66.1369 24.9614 66.1109 25.1219C66.0848 25.2757 66.0717 25.4362 66.0717 25.603C66.0717 25.7955 66.0848 25.9751 66.1109 26.1419C66.1369 26.3024 66.1856 26.4562 66.2572 26.6039C66.3805 26.8475 66.5593 27.053 66.793 27.2197C67.0334 27.3802 67.3287 27.4603 67.6799 27.4603Z" fill="white"/>
<path d="M74.3169 24.169C74.3232 23.9827 74.3268 23.7968 74.3268 23.611C74.3268 23.4247 74.3268 23.2388 74.3268 23.0525H77.9709V27.4122H78.6435V29.6835H77.8444V28.1241H74.0927V29.6835H73.2936V27.4122C73.5538 27.4122 73.7582 27.2966 73.9076 27.0659C73.9986 26.9374 74.0702 26.7546 74.122 26.5172C74.1742 26.2735 74.2129 26.0165 74.239 25.7471C74.2714 25.4522 74.2908 25.1601 74.2975 24.8716C74.3106 24.5763 74.3169 24.3424 74.3169 24.169ZM77.1429 23.7746H75.116C75.1093 24.044 75.103 24.3455 75.0963 24.679C75.0899 25.0125 75.0769 25.3238 75.0575 25.6123C75.0508 25.7408 75.0413 25.8818 75.0282 26.0361C75.0152 26.1837 74.9927 26.3375 74.9599 26.498C74.9341 26.6519 74.8918 26.8089 74.8333 26.9694C74.7815 27.1299 74.7068 27.2775 74.6091 27.4122H77.1429V23.7746Z" fill="white"/>
<path d="M81.7693 22.9947C82.1785 22.9947 82.5324 23.0592 82.8314 23.1873C83.1299 23.3158 83.3802 23.4954 83.5815 23.7262C83.7895 23.9574 83.9421 24.2331 84.0394 24.5541C84.1433 24.8684 84.1955 25.2148 84.1955 25.5932C84.1955 25.9716 84.1433 26.3215 84.0394 26.6421C83.9421 26.9565 83.7895 27.2291 83.5815 27.4603C83.3802 27.6848 83.1268 27.8613 82.8215 27.9894C82.5162 28.1179 82.1588 28.1819 81.7495 28.1819C81.3403 28.1819 80.9832 28.1179 80.6779 27.9894C80.379 27.8613 80.1256 27.6848 79.9176 27.4603C79.7163 27.2291 79.5637 26.9565 79.4597 26.6421C79.3624 26.3215 79.3134 25.9716 79.3134 25.5932C79.3134 25.2148 79.3624 24.8684 79.4597 24.5541C79.5637 24.2331 79.7163 23.9574 79.9176 23.7262C80.1256 23.4954 80.3822 23.3158 80.6874 23.1873C80.9927 23.0592 81.3533 22.9947 81.7693 22.9947ZM81.7495 27.4603C82.0291 27.4603 82.2695 27.4122 82.4707 27.3158C82.6787 27.2197 82.8476 27.0881 82.9773 26.9214C83.1137 26.748 83.2114 26.5492 83.2699 26.3247C83.3347 26.1001 83.3672 25.8564 83.3672 25.5932C83.3672 25.3367 83.3347 25.0961 83.2699 24.8716C83.2114 24.6404 83.1137 24.4416 82.9773 24.2748C82.8476 24.1015 82.6787 23.9667 82.4707 23.8707C82.2695 23.7746 82.0291 23.7262 81.7495 23.7262C81.4704 23.7262 81.2299 23.7746 81.0287 23.8707C80.827 23.9667 80.6582 24.1015 80.5217 24.2748C80.392 24.4416 80.2944 24.6404 80.2295 24.8716C80.171 25.0961 80.1418 25.3367 80.1418 25.5932C80.1418 25.8564 80.171 26.1001 80.2295 26.3247C80.2944 26.5492 80.392 26.748 80.5217 26.9214C80.6582 27.0881 80.827 27.2197 81.0287 27.3158C81.2299 27.4122 81.4704 27.4603 81.7495 27.4603Z" fill="white"/>
<path d="M87.0307 26.1899L85.6274 28.1241H84.6922L86.5238 25.5354L84.7796 23.0525H85.7737L87.0793 24.9774L88.3446 23.0525H89.3094L87.5763 25.5643L89.436 28.1241H88.4514L87.0307 26.1899Z" fill="white"/>
<path d="M92.3897 22.9947C92.797 22.9947 93.1529 23.0592 93.4494 23.1873C93.75 23.3158 93.9991 23.4954 94.2007 23.7262C94.4103 23.9574 94.5606 24.2331 94.6594 24.5541C94.7622 24.8684 94.8136 25.2148 94.8136 25.5932C94.8136 25.9716 94.7622 26.3215 94.6594 26.6421C94.5606 26.9565 94.4103 27.2291 94.2007 27.4603C93.9991 27.6848 93.746 27.8613 93.4415 27.9894C93.1371 28.1179 92.7772 28.1819 92.37 28.1819C91.9587 28.1819 91.6029 28.1179 91.2984 27.9894C90.9979 27.8613 90.7448 27.6848 90.5392 27.4603C90.3375 27.2291 90.1833 26.9565 90.0805 26.6421C89.9817 26.3215 89.9342 25.9716 89.9342 25.5932C89.9342 25.2148 89.9817 24.8684 90.0805 24.5541C90.1833 24.2331 90.3375 23.9574 90.5392 23.7262C90.7448 23.4954 91.0018 23.3158 91.3063 23.1873C91.6108 23.0592 91.9746 22.9947 92.3897 22.9947ZM92.37 27.4603C92.6507 27.4603 92.8879 27.4122 93.0896 27.3158C93.2992 27.2197 93.4692 27.0881 93.5957 26.9214C93.7341 26.748 93.833 26.5492 93.8883 26.3247C93.9556 26.1001 93.9872 25.8564 93.9872 25.5932C93.9872 25.3367 93.9556 25.0961 93.8883 24.8716C93.833 24.6404 93.7341 24.4416 93.5957 24.2748C93.4692 24.1015 93.2992 23.9667 93.0896 23.8707C92.8879 23.7746 92.6507 23.7262 92.37 23.7262C92.0892 23.7262 91.848 23.7746 91.6464 23.8707C91.4486 23.9667 91.2786 24.1015 91.1402 24.2748C91.0097 24.4416 90.9148 24.6404 90.8476 24.8716C90.7923 25.0961 90.7606 25.3367 90.7606 25.5932C90.7606 25.8564 90.7923 26.1001 90.8476 26.3247C90.9148 26.5492 91.0097 26.748 91.1402 26.9214C91.2786 27.0881 91.4486 27.2197 91.6464 27.3158C91.848 27.4122 92.0892 27.4603 92.37 27.4603Z" fill="white"/>
<path d="M96.3953 24.169C96.3992 23.9827 96.4032 23.7968 96.4032 23.611C96.4032 23.4247 96.4032 23.2388 96.4032 23.0525H100.049V27.4122H100.721V29.6835H99.9224V28.1241H96.1699V29.6835H95.3712V27.4122C95.6321 27.4122 95.8338 27.2966 95.984 27.0659C96.075 26.9374 96.1462 26.7546 96.1976 26.5172C96.249 26.2735 96.2885 26.0165 96.3162 25.7471C96.3478 25.4522 96.3676 25.1601 96.3755 24.8716C96.3874 24.5763 96.3953 24.3424 96.3953 24.169ZM99.2185 23.7746H97.194C97.1861 24.044 97.1782 24.3455 97.1742 24.679C97.1663 25.0125 97.1545 25.3238 97.1347 25.6123C97.1268 25.7408 97.1189 25.8818 97.107 26.0361C97.0912 26.1837 97.0714 26.3375 97.0359 26.498C97.0121 26.6519 96.9686 26.8089 96.9093 26.9694C96.8579 27.1299 96.7828 27.2775 96.6879 27.4122H99.2185V23.7746Z" fill="white"/>
<path d="M101.587 28.1241V23.0525H102.414V25.2757H104.988V23.0525H105.814V28.1241H104.988V25.9974H102.414V28.1241H101.587Z" fill="white"/>
<path d="M109.385 22.9947C109.792 22.9947 110.148 23.0592 110.448 23.1873C110.745 23.3158 110.994 23.4954 111.196 23.7262C111.405 23.9574 111.555 24.2331 111.654 24.5541C111.757 24.8684 111.812 25.2148 111.812 25.5932C111.812 25.9716 111.757 26.3215 111.654 26.6421C111.555 26.9565 111.405 27.2291 111.196 27.4603C110.994 27.6848 110.741 27.8613 110.436 27.9894C110.132 28.1179 109.772 28.1819 109.365 28.1819C108.954 28.1819 108.598 28.1179 108.293 27.9894C107.993 27.8613 107.74 27.6848 107.534 27.4603C107.332 27.2291 107.178 26.9565 107.075 26.6421C106.977 26.3215 106.929 25.9716 106.929 25.5932C106.929 25.2148 106.977 24.8684 107.075 24.5541C107.178 24.2331 107.332 23.9574 107.534 23.7262C107.74 23.4954 107.997 23.3158 108.301 23.1873C108.61 23.0592 108.969 22.9947 109.385 22.9947ZM109.365 27.4603C109.646 27.4603 109.883 27.4122 110.085 27.3158C110.294 27.2197 110.464 27.0881 110.591 26.9214C110.729 26.748 110.828 26.5492 110.883 26.3247C110.95 26.1001 110.982 25.8564 110.982 25.5932C110.982 25.3367 110.95 25.0961 110.883 24.8716C110.828 24.6404 110.729 24.4416 110.591 24.2748C110.464 24.1015 110.294 23.9667 110.085 23.8707C109.883 23.7746 109.646 23.7262 109.365 23.7262C109.084 23.7262 108.847 23.7746 108.645 23.8707C108.444 23.9667 108.274 24.1015 108.135 24.2748C108.009 24.4416 107.91 24.6404 107.847 24.8716C107.787 25.0961 107.756 25.3367 107.756 25.5932C107.756 25.8564 107.787 26.1001 107.847 26.3247C107.91 26.5492 108.009 26.748 108.135 26.9214C108.274 27.0881 108.444 27.2197 108.645 27.3158C108.847 27.4122 109.084 27.4603 109.365 27.4603Z" fill="white"/>
<path d="M115.249 21.7533C115.521 21.7533 115.739 21.7021 115.901 21.5994C116.071 21.4967 116.154 21.3171 116.154 21.0605H116.913C116.901 21.5225 116.743 21.8595 116.447 22.0712C116.154 22.2828 115.751 22.3887 115.237 22.3887C114.727 22.3887 114.323 22.2828 114.031 22.0712C113.742 21.8595 113.596 21.5225 113.58 21.0605H114.343C114.347 21.3171 114.434 21.4967 114.596 21.5994C114.758 21.7021 114.976 21.7533 115.249 21.7533ZM113.726 28.1241H112.92V23.0525H113.746V26.9405C113.794 26.8507 113.853 26.7546 113.932 26.6519C114.011 26.543 114.07 26.4594 114.118 26.4016L116.601 23.0525H117.419V28.1241H116.593V24.2362C116.542 24.3326 116.482 24.4256 116.415 24.5154C116.36 24.599 116.304 24.6728 116.253 24.7368L113.726 28.1241Z" fill="white"/>
<path d="M121.718 28.1359V23.0643H122.546V25.2874H125.119V23.0643H125.947V28.1359H125.119V26.0091H122.546V28.1359H121.718Z" fill="white"/>
<path d="M127.899 25.9033C127.919 26.1278 127.964 26.3364 128.036 26.5289C128.113 26.7148 128.217 26.8784 128.347 27.0198C128.477 27.1608 128.637 27.2732 128.825 27.3564C129.02 27.4333 129.244 27.472 129.497 27.472C129.621 27.472 129.747 27.4622 129.877 27.4431C130.013 27.4173 130.14 27.379 130.257 27.3275C130.374 27.2697 130.478 27.1959 130.569 27.1061C130.66 27.0163 130.728 26.9073 130.774 26.7792H131.622C131.563 27.0229 131.462 27.2346 131.319 27.4142C131.183 27.5938 131.017 27.7414 130.822 27.857C130.634 27.9722 130.423 28.0589 130.189 28.1167C129.955 28.1679 129.718 28.1937 129.478 28.1937C129.068 28.1937 128.711 28.1296 128.406 28.0011C128.107 27.873 127.857 27.6965 127.656 27.472C127.454 27.2408 127.305 26.9682 127.207 26.6539C127.11 26.3333 127.061 25.9834 127.061 25.605C127.061 25.2265 127.113 24.8802 127.217 24.5658C127.327 24.2448 127.483 23.9691 127.685 23.7379C127.886 23.5071 128.133 23.3275 128.425 23.199C128.718 23.0709 129.065 23.0065 129.468 23.0065C129.877 23.0065 130.231 23.0869 130.53 23.2474C130.829 23.4075 131.069 23.6192 131.251 23.8824C131.433 24.139 131.56 24.4182 131.631 24.7197C131.709 25.0211 131.742 25.3003 131.729 25.5569C131.729 25.6147 131.725 25.6725 131.719 25.7303C131.719 25.7877 131.716 25.8455 131.709 25.9033H127.899ZM130.89 25.191C130.878 24.7614 130.741 24.4115 130.481 24.1421C130.221 23.8726 129.874 23.7379 129.439 23.7379C129.198 23.7379 128.987 23.7766 128.805 23.8535C128.624 23.9304 128.471 24.0363 128.347 24.171C128.224 24.3057 128.126 24.4631 128.055 24.6427C127.983 24.8157 127.938 24.9989 127.918 25.191H130.89Z" fill="white"/>
<path d="M133.312 24.1807C133.319 23.9945 133.322 23.8086 133.322 23.6227C133.322 23.4364 133.322 23.2505 133.322 23.0643H136.966V27.4239H137.639V29.6952H136.84V28.1359H133.088V29.6952H132.289V27.4239C132.549 27.4239 132.754 27.3084 132.903 27.0776C132.994 26.9491 133.065 26.7663 133.117 26.5289C133.169 26.2852 133.208 26.0283 133.234 25.7588C133.267 25.464 133.286 25.1719 133.293 24.8833C133.306 24.5881 133.312 24.3541 133.312 24.1807ZM136.138 23.7863H134.111C134.105 24.0558 134.098 24.3573 134.092 24.6908C134.085 25.0243 134.072 25.3355 134.053 25.6241C134.046 25.7526 134.037 25.8935 134.024 26.0478C134.011 26.1954 133.988 26.3493 133.955 26.5098C133.93 26.6636 133.887 26.8206 133.829 26.9811C133.777 27.1416 133.702 27.2892 133.605 27.4239H136.138V23.7863Z" fill="white"/>
<path d="M138.504 23.0643H140.491C140.823 23.0643 141.106 23.0869 141.339 23.1318C141.58 23.1767 141.781 23.2568 141.943 23.3724C142.087 23.4684 142.197 23.5969 142.275 23.7574C142.359 23.9175 142.401 24.1069 142.401 24.3252C142.401 24.8317 142.171 25.1945 141.71 25.4124C142.061 25.4893 142.314 25.6401 142.47 25.865C142.626 26.0896 142.703 26.3461 142.703 26.6347C142.697 26.9042 142.652 27.1256 142.567 27.2986C142.483 27.4653 142.363 27.613 142.207 27.7414C142.057 27.8633 141.872 27.9597 141.651 28.03C141.43 28.1007 141.18 28.1359 140.901 28.1359H138.504V23.0643ZM139.352 23.7863V25.2297H140.063C140.225 25.2297 140.391 25.2265 140.56 25.2199C140.729 25.2074 140.878 25.1785 141.008 25.1336C141.17 25.082 141.307 24.9989 141.417 24.8833C141.528 24.7677 141.586 24.6298 141.593 24.4693C141.593 24.2835 141.55 24.1487 141.466 24.0652C141.388 23.9753 141.291 23.9113 141.174 23.8726C141.057 23.8277 140.93 23.8023 140.794 23.7957C140.657 23.7895 140.531 23.7863 140.414 23.7863H139.352ZM139.352 27.4239H140.706C140.855 27.4239 140.998 27.4142 141.135 27.3951C141.278 27.3755 141.401 27.3404 141.505 27.2892C141.609 27.2314 141.694 27.1545 141.758 27.058C141.823 26.962 141.859 26.8401 141.866 26.6925C141.866 26.5 141.82 26.3493 141.729 26.2403C141.638 26.1247 141.515 26.0411 141.359 25.99C141.229 25.9513 141.083 25.9291 140.921 25.9224C140.758 25.9162 140.589 25.9131 140.414 25.9131L139.352 25.9224V27.4239Z" fill="white"/>
<path d="M144.641 28.1359H143.833V23.0643H144.661V26.9522C144.707 26.8624 144.768 26.7663 144.846 26.6636C144.924 26.5547 144.986 26.4711 145.031 26.4133L147.516 23.0643H148.335V28.1359H147.506V24.2479C147.454 24.3444 147.396 24.4373 147.331 24.5271C147.272 24.6107 147.217 24.6845 147.165 24.7486L144.641 28.1359Z" fill="white"/>
<path d="M152.278 28.1359V25.9513H151.421L150.086 28.1359H149.121L150.787 25.48L149.267 23.0643H150.154L151.508 25.2586H152.278V23.0643H153.106V25.2586H153.876L155.231 23.0643H156.117L154.597 25.48L156.263 28.1359H155.299L153.964 25.9513H153.106V28.1359H152.278Z" fill="white"/>
<path d="M157.859 28.1359H157.05V23.0643H157.879V26.9522C157.924 26.8624 157.986 26.7663 158.064 26.6636C158.142 26.5547 158.203 26.4711 158.249 26.4133L160.734 23.0643H161.552V28.1359H160.724V24.2479C160.672 24.3444 160.613 24.4373 160.549 24.5271C160.49 24.6107 160.435 24.6845 160.383 24.7486L157.859 28.1359Z" fill="white"/>
<path d="M162.855 23.0643H163.966L165.632 25.605L167.271 23.0643H168.362V28.1359H167.544V23.9691L165.73 26.8366H165.496L163.673 23.9691V28.1359H162.855V23.0643Z" fill="white"/>
<path d="M171.929 23.0065C172.34 23.0065 172.692 23.0709 172.993 23.199C173.289 23.3275 173.538 23.5071 173.74 23.7379C173.95 23.9691 174.104 24.2448 174.199 24.5658C174.305 24.8802 174.357 25.2265 174.357 25.605C174.357 25.9834 174.305 26.3333 174.199 26.6539C174.104 26.9682 173.95 27.2408 173.74 27.472C173.538 27.6965 173.285 27.873 172.981 28.0011C172.676 28.1296 172.32 28.1937 171.909 28.1937C171.502 28.1937 171.142 28.1296 170.838 28.0011C170.537 27.873 170.284 27.6965 170.078 27.472C169.877 27.2408 169.723 26.9682 169.62 26.6539C169.521 26.3333 169.473 25.9834 169.473 25.605C169.473 25.2265 169.521 24.8802 169.62 24.5658C169.723 24.2448 169.877 23.9691 170.078 23.7379C170.284 23.5071 170.541 23.3275 170.849 23.199C171.154 23.0709 171.514 23.0065 171.929 23.0065ZM171.909 27.472C172.19 27.472 172.431 27.4239 172.629 27.3275C172.838 27.2314 173.008 27.0998 173.139 26.9331C173.273 26.7597 173.372 26.5609 173.432 26.3364C173.495 26.1118 173.526 25.8682 173.526 25.605C173.526 25.3484 173.495 25.1078 173.432 24.8833C173.372 24.6521 173.273 24.4533 173.139 24.2866C173.008 24.1132 172.838 23.9785 172.629 23.8824C172.431 23.7863 172.19 23.7379 171.909 23.7379C171.628 23.7379 171.391 23.7863 171.19 23.8824C170.988 23.9785 170.818 24.1132 170.683 24.2866C170.553 24.4533 170.454 24.6521 170.391 24.8833C170.331 25.1078 170.304 25.3484 170.304 25.605C170.304 25.8682 170.331 26.1118 170.391 26.3364C170.454 26.5609 170.553 26.7597 170.683 26.9331C170.818 27.0998 170.988 27.2314 171.19 27.3275C171.391 27.4239 171.628 27.472 171.909 27.472Z" fill="white"/>
<path d="M177.655 28.1937C177.247 28.1937 176.891 28.1296 176.595 28.0011C176.294 27.873 176.049 27.6934 175.851 27.4622C175.658 27.2314 175.511 26.9589 175.416 26.6445C175.318 26.3301 175.27 25.9869 175.27 25.6147C175.27 25.2554 175.322 24.9184 175.424 24.6041C175.527 24.2834 175.681 24.0074 175.883 23.7766C176.085 23.5391 176.338 23.3532 176.642 23.2185C176.947 23.0772 177.318 23.0065 177.753 23.0065C178.014 23.0065 178.244 23.0354 178.445 23.0932C178.647 23.1447 178.837 23.231 179.011 23.3532C179.193 23.4684 179.347 23.6227 179.477 23.8148C179.608 24.0073 179.703 24.2417 179.762 24.5174H178.912C178.817 24.2354 178.659 24.0331 178.445 23.9113C178.236 23.7894 177.991 23.7317 177.706 23.7379C177.425 23.7379 177.18 23.7926 176.963 23.9015C176.757 24.0042 176.587 24.1421 176.456 24.3155C176.334 24.4889 176.243 24.6908 176.184 24.9216C176.124 25.1461 176.097 25.3773 176.097 25.6147C176.097 25.8646 176.124 26.1021 176.184 26.3266C176.251 26.5512 176.346 26.7503 176.468 26.9233C176.599 27.0901 176.761 27.2248 176.963 27.3275C177.164 27.4239 177.405 27.472 177.686 27.472C177.821 27.472 177.955 27.4591 178.086 27.4333C178.22 27.408 178.347 27.3662 178.453 27.3084C178.572 27.2443 178.675 27.1607 178.758 27.058C178.841 26.9553 178.904 26.8304 178.944 26.6828H179.802C179.746 26.946 179.655 27.1736 179.517 27.3661C179.386 27.552 179.224 27.7094 179.031 27.8375C178.837 27.9597 178.619 28.0496 178.386 28.107C178.153 28.1648 177.908 28.1937 177.655 28.1937Z" fill="white"/>
<path d="M184.642 23.0643V23.7863H182.878V28.1359H182.048V23.7863H180.284V23.0643H184.642Z" fill="white"/>
<path d="M186.188 28.1359H185.381V23.0643H186.207V26.9522C186.255 26.8624 186.314 26.7663 186.393 26.6636C186.472 26.5547 186.532 26.4711 186.579 26.4133L189.062 23.0643H189.881V28.1359H189.054V24.2479C188.999 24.3444 188.944 24.4373 188.876 24.5271C188.817 24.6107 188.766 24.6845 188.71 24.7486L186.188 28.1359Z" fill="white"/>
</g>
<defs>
<clipPath id="clip0_13097_28031">
<rect width="223" height="30" fill="white"/>
</clipPath>
</defs>
</svg>
